<?xml version="1.0" encoding="utf-8"?>
<!-- Generator: Adobe Illustrator 22.1.0, SVG Export Plug-In . SVG Version: 6.00 Build 0)  -->
<svg version="1.2" baseProfile="tiny" id="Warstwa_1"
	 xmlns="http://www.w3.org/2000/svg" xmlns:xlink="http://www.w3.org/1999/xlink" x="0px" y="0px" viewBox="0 0 754.00488 510"
	 xml:space="preserve">
<g>
	<path fill="#A48A7B" stroke="#A3897B" stroke-width="0.51747" stroke-miterlimit="10" d="M32.60749,228.93141h12.36733
		c5.53852,0,10.27354,1.96408,14.2034,5.89224c3.92817,3.92986,5.89225,8.66489,5.89225,14.2034
		c0,5.54019-1.96409,10.27522-5.89225,14.20338c-3.92986,3.92987-8.66488,5.89395-14.2034,5.89395h-9.27634v18.55099
		c0,0.84897-0.3032,1.57834-0.90792,2.18304c-0.60472,0.60474-1.33241,0.90793-2.18307,0.90793
		c-0.85065,0-1.57834-0.30319-2.18306-0.90793c-0.60641-0.60471-0.90961-1.33408-0.90961-2.18304V232.0224
		c0-0.85066,0.3032-1.57835,0.90961-2.18307C31.02915,229.2346,31.75684,228.93141,32.60749,228.93141z M35.69849,235.11507
		v27.82564h9.27634c3.83889,0,7.11686-1.35934,9.83558-4.07806c2.71704-2.71704,4.0764-5.9967,4.0764-9.83559
		c0-3.8389-1.35936-7.11687-4.0764-9.83559c-2.71872-2.71704-5.99669-4.0764-9.83558-4.0764H35.69849z"/>
	<path fill="#A48A7B" stroke="#A3897B" stroke-width="0.51747" stroke-miterlimit="10" d="M78.69946,228.93141h15.45831
		c5.12751,0,9.50037,1.80911,13.12197,5.42902c3.61823,3.61992,5.42902,7.99446,5.42902,13.12029
		c0,5.1275-1.80406,9.49533-5.41049,13.10175c-1.67436,1.67606-3.4919,2.9512-5.44924,3.82712l13.44875,21.56448
		c0.33521,0.49017,0.50365,1.05615,0.50365,1.70132c0,0.84897-0.3032,1.57834-0.90961,2.18304
		c-0.60472,0.60474-1.33241,0.90793-2.18307,0.90793c-1.10838,0-2.00957-0.52722-2.70525-1.58508l-14.49312-23.18832
		c-0.43797,0.02698-0.88772,0.03876-1.35263,0.03876H81.79045v21.64368c0,0.84897-0.30321,1.57834-0.90793,2.18304
		c-0.60472,0.60474-1.33241,0.90793-2.18306,0.90793s-1.57835-0.30319-2.18307-0.90793
		c-0.60641-0.60471-0.90961-1.33408-0.90961-2.18304V232.0224c0-0.85066,0.3032-1.57835,0.90961-2.18307
		C77.12112,229.2346,77.84881,228.93141,78.69946,228.93141z M81.79045,235.11507v24.73299h12.36732
		c3.4262,0,6.34538-1.20441,8.75416-3.61319s3.61317-5.32626,3.61317-8.75415c0-3.42619-1.20439-6.34369-3.61317-8.75247
		s-5.32796-3.61317-8.75416-3.61317H81.79045z"/>
	<path fill="#A48A7B" stroke="#A3897B" stroke-width="0.51747" stroke-miterlimit="10" d="M188.17441,259.84805
		c0,8.52841-3.02193,15.81372-9.06241,21.8559c-6.04218,6.04218-13.32748,9.06241-21.85591,9.06241
		c-8.52844,0-15.81375-3.02023-21.85423-9.06241c-6.04216-6.04218-9.06409-13.32748-9.06409-21.8559
		c0-8.52676,3.02193-15.81207,9.06409-21.85423c6.04048-6.04218,13.32579-9.06241,21.85423-9.06241
		c8.52843,0,15.81374,3.02023,21.85591,9.06241C185.15248,244.03598,188.17441,251.32129,188.17441,259.84805z M157.25609,235.11507
		c-6.82713,0-12.65706,2.41553-17.4881,7.24487c-4.83104,4.83104-7.24657,10.66098-7.24657,17.48811
		c0,6.8288,2.41553,12.65704,7.24657,17.4881c4.83104,4.83102,10.66096,7.24655,17.4881,7.24655
		c6.82712,0,12.65706-2.41553,17.4881-7.24655c4.83104-4.83105,7.24655-10.6593,7.24655-17.4881
		c0-6.82713-2.41551-12.65707-7.24655-17.48811C169.91315,237.53059,164.08321,235.11507,157.25609,235.11507z"/>
	<path fill="#A48A7B" stroke="#A3897B" stroke-width="0.51747" stroke-miterlimit="10" d="M225.64697,289.83823
		c-0.61819,0.61819-1.35263,0.92813-2.20328,0.92813c-0.85066,0-1.57161-0.30994-2.16454-0.92813
		c-0.28299-0.25604-0.50197-0.59125-0.65694-1.00394l-21.52576-55.07184c-0.25772-0.59294-0.38744-1.17239-0.38744-1.74005
		c0-0.85066,0.30321-1.57835,0.90962-2.18307c0.60472-0.60472,1.3324-0.90791,2.18306-0.90791
		c1.36441,0,2.30603,0.59293,2.82147,1.7771l18.82051,48.42494l18.82219-48.42494c0.51376-1.18417,1.45538-1.7771,2.82147-1.7771
		c0.84897,0,1.57666,0.30319,2.18307,0.90791c0.60472,0.60472,0.90791,1.33241,0.90791,2.18307
		c0,0.56766-0.1297,1.14711-0.38574,1.74005l-21.52744,55.07184C226.1102,289.24698,225.90469,289.58218,225.64697,289.83823z"/>
	<path fill="#A48A7B" stroke="#A3897B" stroke-width="0.51747" stroke-miterlimit="10" d="M261.80734,232.0224
		c0-0.85066,0.30319-1.57835,0.90793-2.18307c0.60471-0.60472,1.33408-0.90791,2.18307-0.90791
		c0.85065,0,1.57834,0.30319,2.18472,0.90791c0.60474,0.60472,0.90793,1.33241,0.90793,2.18307v55.65298
		c0,0.84897-0.30319,1.57834-0.90793,2.18304c-0.60638,0.60474-1.33408,0.90793-2.18472,0.90793
		c-0.849,0-1.57837-0.30319-2.18307-0.90793c-0.60474-0.60471-0.90793-1.33408-0.90793-2.18304V232.0224z"/>
	<path fill="#A48A7B" stroke="#A3897B" stroke-width="0.51747" stroke-miterlimit="10" d="M297.07831,228.93141
		c8.52676,0,15.81207,3.02023,21.85422,9.06241c6.04218,6.04216,9.06412,13.32747,9.06412,21.85423
		c0,8.52841-3.02194,15.81372-9.06412,21.8559c-6.04214,6.04218-13.32745,9.06241-21.85422,9.06241H284.711
		c-0.85068,0-1.57837-0.30319-2.18307-0.90793c-0.60641-0.60471-0.90961-1.33408-0.90961-2.18304V232.0224
		c0-0.85066,0.30319-1.57835,0.90961-2.18307c0.60471-0.60472,1.3324-0.90791,2.18307-0.90791H297.07831z M297.07831,284.5827
		c6.82715,0,12.65707-2.41553,17.4881-7.24655c4.83105-4.83105,7.24655-10.6593,7.24655-17.4881
		c0-6.82713-2.4155-12.65707-7.24655-17.48811c-4.83102-4.82935-10.66095-7.24487-17.4881-7.24487h-9.27634v49.46764H297.07831z"/>
	<path fill="#A48A7B" stroke="#A3897B" stroke-width="0.51747" stroke-miterlimit="10" d="M341.62393,228.93141h37.10199
		c0.84897,0,1.57666,0.30319,2.18307,0.90791c0.60471,0.60472,0.90793,1.33241,0.90793,2.18307
		c0,0.85065-0.30322,1.57834-0.90793,2.18306c-0.60641,0.6064-1.33411,0.90961-2.18307,0.90961h-34.01099v21.64198h24.73465
		c0.85065,0,1.57834,0.30319,2.18307,0.90793c0.60641,0.60641,0.90961,1.33411,0.90961,2.18307
		c0,0.85065-0.30319,1.57834-0.90961,2.18472c-0.60474,0.60474-1.33243,0.90793-2.18307,0.90793h-24.73465v21.642h34.01099
		c0.84897,0,1.57666,0.30319,2.18307,0.90793c0.60471,0.60638,0.90793,1.33408,0.90793,2.18475
		c0,0.84897-0.30322,1.57834-0.90793,2.18304c-0.60641,0.60474-1.33411,0.90793-2.18307,0.90793h-37.10199
		c-0.85065,0-1.57834-0.30319-2.18304-0.90793c-0.60641-0.60471-0.90961-1.33408-0.90961-2.18304V232.0224
		c0-0.85066,0.30319-1.57835,0.90961-2.18307C340.04559,229.2346,340.77328,228.93141,341.62393,228.93141z"/>
</g>
<g>
	<path fill="#3EB9C0" stroke="#3EB9BF" stroke-width="0.51747" stroke-miterlimit="10" d="M409.96936,227.18462
		c8.52673,0,15.81036,3.02025,21.85083,9.06073c6.0405,6.04216,9.06244,13.32579,9.06244,21.85252
		c0,8.52676-3.02194,15.81039-9.06244,21.85257c-6.04047,6.04047-13.3241,9.0607-21.85083,9.0607h-12.36734
		c-0.84897,0-1.57666-0.30319-2.18307-0.9079c-0.60638-0.60474-0.90622-1.33411-0.90622-2.18307V230.2756
		c0-0.84897,0.29984-1.57666,0.90622-2.18306c0.60641-0.60472,1.33411-0.90793,2.18307-0.90793H409.96936z M409.96936,282.82916
		c6.82544,0,12.65369-2.4155,17.48471-7.24655c4.83105-4.82935,7.24319-10.65759,7.24319-17.48474
		c0-6.82542-2.41214-12.65535-7.24319-17.48471c-4.83102-4.83104-10.65927-7.24657-17.48471-7.24657h-9.27466v49.46257H409.96936z"
		/>
	<path fill="#3EB9C0" stroke="#3EB9BF" stroke-width="0.51747" stroke-miterlimit="10" d="M454.97821,230.2756
		c0-0.84897,0.29984-1.57666,0.90625-2.18306c0.60638-0.60472,1.33408-0.90793,2.18304-0.90793
		c0.85236,0,1.57666,0.30321,2.18307,0.90793c0.60641,0.6064,0.90961,1.33409,0.90961,2.18306v24.73129h30.91327V230.2756
		c0-0.84897,0.30319-1.57666,0.90625-2.18306c0.60638-0.60472,1.33408-0.90793,2.18304-0.90793
		c0.85236,0,1.58005,0.30321,2.18307,0.90793c0.60641,0.6064,0.90961,1.33409,0.90961,2.18306v55.64456
		c0,0.84897-0.30319,1.57834-0.90961,2.18307c-0.60303,0.60471-1.33072,0.9079-2.18307,0.9079
		c-0.84897,0-1.57666-0.30319-2.18304-0.9079c-0.60306-0.60474-0.90625-1.33411-0.90625-2.18307v-24.73129h-30.91327v24.73129
		c0,0.84897-0.30319,1.57834-0.90961,2.18307c-0.60641,0.60471-1.33072,0.9079-2.18307,0.9079
		c-0.84897,0-1.57666-0.30319-2.18304-0.9079c-0.60641-0.60474-0.90625-1.33411-0.90625-2.18307V230.2756z"/>
</g>
<line fill="none" stroke="#CBBBA0" stroke-width="3.44978" stroke-linecap="round" stroke-miterlimit="10" x1="29.95697" y1="308.98013" x2="729.40338" y2="308.98013"/>
<g>
	<path fill="#CBBBA0" d="M522.42072,245.72551v-14.56557c0-0.31331,0.20551-0.48512,0.61993-0.51375h4.07971
		c1.388,0,2.4964,0.36383,3.32178,1.09152c0.8288,0.72601,1.24316,1.87482,1.24316,3.44305v0.21391
		c0,1.56824-0.41779,2.72041-1.25323,3.45483c-0.83551,0.73444-1.95398,1.10164-3.35883,1.10164h-3.19037v5.77435
		c0,0.17012-0.07416,0.30656-0.22235,0.40594c-0.14825,0.09938-0.31671,0.14992-0.50873,0.14992
		c-0.20551,0-0.38068-0.05054-0.52216-0.14992C522.49152,246.03207,522.42072,245.89563,522.42072,245.72551z M523.88287,238.73161
		h3.19037c1.00726,0,1.78217-0.27119,2.32794-0.8136c0.54572-0.54071,0.82196-1.36104,0.82196-2.45932v-0.25603
		c0-2.16791-1.05109-3.25102-3.1499-3.25102h-3.19037V238.73161z"/>
	<path fill="#CBBBA0" d="M535.32037,245.72551v-14.56557c0-0.31331,0.1853-0.48512,0.55249-0.51375h3.9248
		c1.43176,0,2.58734,0.32846,3.46661,0.98372c0.87927,0.65694,1.32062,1.73331,1.32062,3.22911
		c0,2.36836-1.15216,3.74457-3.45654,4.12863l3.41278,6.33189c0.05725,0.07074,0.08759,0.16339,0.08759,0.27794
		c0,0.18529-0.08759,0.35205-0.26617,0.50197c-0.17853,0.14992-0.37054,0.22403-0.57605,0.22403
		c-0.26617,0-0.52557-0.2493-0.7749-0.74789l-3.41272-6.41612h-2.81641v6.56604c0,0.17012-0.0741,0.30656-0.22235,0.40594
		s-0.31665,0.14992-0.50873,0.14992c-0.20551,0-0.38068-0.05054-0.52216-0.14992
		C535.39111,246.03207,535.32037,245.89563,535.32037,245.72551z M536.78247,237.93991h3.0152
		c2.21674,0,3.32513-1.00562,3.32513-3.01518c0-1.98262-1.1084-2.97308-3.32513-2.97308h-3.0152V237.93991z"/>
	<path fill="#CBBBA0" d="M548.08185,241.8327v-6.63004c0-1.56824,0.41772-2.72041,1.25323-3.45483
		c0.83551-0.73444,1.95398-1.10164,3.35883-1.10164c1.40149,0,2.51996,0.3672,3.35547,1.10164
		c0.83545,0.73442,1.25323,1.8866,1.25323,3.45483v6.63004c0,1.5834-0.41779,2.74063-1.25323,3.47505
		c-0.83551,0.73442-1.95398,1.10164-3.35547,1.10164c-1.40485,0-2.52332-0.36722-3.35883-1.10164
		S548.08185,243.41611,548.08185,241.8327z M549.54736,241.8327c0,2.18138,1.04773,3.27292,3.14655,3.27292
		c2.09546,0,3.14661-1.09154,3.14661-3.27292v-6.63004c0-2.16791-1.05115-3.25102-3.14661-3.25102
		c-2.09882,0-3.14655,1.08311-3.14655,3.25102V241.8327z"/>
	<path fill="#CBBBA0" d="M561.53735,241.8327v-6.63004c0-1.56824,0.41772-2.72041,1.25323-3.45483
		c0.83551-0.73444,1.9472-1.10164,3.33521-1.10164c1.40485,0,2.52673,0.34531,3.36896,1.03763
		c0.84222,0.69231,1.26337,1.58002,1.26337,2.66313c0,0.48512-0.24261,0.726-0.73108,0.726
		c-0.47504,0-0.71759-0.17686-0.73108-0.53397c-0.20886-1.7249-1.25659-2.58734-3.14655-2.58734
		c-2.09888,0-3.14661,1.08311-3.14661,3.25102v6.63004c0,1.09828,0.27289,1.91861,0.81866,2.45932
		c0.54578,0.5424,1.32062,0.8136,2.32794,0.8136c1.00391,0,1.77881-0.27119,2.32452-0.8136
		c0.54913-0.54071,0.82202-1.36104,0.82202-2.45932v-2.54521h-2.97137c-0.16168,0-0.28973-0.06065-0.38745-0.18193
		c-0.0943-0.12128-0.14484-0.26782-0.14484-0.43796c0-0.15666,0.05054-0.29646,0.14484-0.41774
		c0.09772-0.12129,0.22577-0.18193,0.38745-0.18193h3.90125c0.3537,0,0.53229,0.18529,0.53229,0.55588v3.20889
		c0,1.5834-0.41779,2.74063-1.25323,3.47505c-0.83551,0.73442-1.95398,1.10164-3.35547,1.10164
		c-1.40485,0-2.52332-0.36722-3.35883-1.10164S561.53735,243.41611,561.53735,241.8327z"/>
	<path fill="#CBBBA0" d="M574.92206,245.72551v-14.56557c0-0.31331,0.1853-0.48512,0.55255-0.51375h3.9248
		c1.43176,0,2.58734,0.32846,3.46661,0.98372c0.87927,0.65694,1.32062,1.73331,1.32062,3.22911
		c0,2.36836-1.15216,3.74457-3.45654,4.12863l3.41272,6.33189c0.05731,0.07074,0.08759,0.16339,0.08759,0.27794
		c0,0.18529-0.08759,0.35205-0.26611,0.50197c-0.17859,0.14992-0.37061,0.22403-0.57611,0.22403
		c-0.26611,0-0.52551-0.2493-0.77484-0.74789l-3.41272-6.41612h-2.81641v6.56604c0,0.17012-0.07416,0.30656-0.22235,0.40594
		c-0.14825,0.09938-0.31671,0.14992-0.50873,0.14992c-0.20551,0-0.38068-0.05054-0.52216-0.14992
		C574.99286,246.03207,574.92206,245.89563,574.92206,245.72551z M576.38422,237.93991h3.0152
		c2.21674,0,3.32513-1.00562,3.32513-3.01518c0-1.98262-1.1084-2.97308-3.32513-2.97308h-3.0152V237.93991z"/>
	<path fill="#CBBBA0" d="M587.86548,245.72551v-14.54535c0-0.17014,0.06738-0.30151,0.19879-0.39417
		c0.13477-0.09264,0.28973-0.1398,0.4649-0.1398h7.89001c0.37061,0,0.55591,0.20718,0.55591,0.61987
		c0,0.18529-0.05054,0.347-0.1449,0.48177c-0.09766,0.13643-0.23242,0.20381-0.41101,0.20381h-7.09155v5.88046h3.4801
		c0.17853,0,0.31329,0.06233,0.41101,0.18192c0.0943,0.12129,0.14148,0.27458,0.14148,0.45987
		c0,0.38574-0.18195,0.57777-0.55249,0.57777h-3.4801v5.92426h7.09155c0.16174,0,0.29651,0.06569,0.40094,0.19371
		c0.10107,0.12802,0.15497,0.28467,0.15497,0.46996c0,0.42786-0.1853,0.64178-0.55591,0.64178h-7.89001
		c-0.17517,0-0.33014-0.05054-0.4649-0.14992C587.93286,246.03207,587.86548,245.89563,587.86548,245.72551z"/>
	<path fill="#CBBBA0" d="M599.45795,244.14211c0-0.17014,0.0708-0.34531,0.20892-0.52386
		c0.14148-0.17856,0.29309-0.26784,0.45477-0.26784c0.11792,0,0.26617,0.09433,0.4447,0.27794l0.61987,0.62157
		c0.22235,0.2274,0.57275,0.43123,1.05115,0.60979c0.48175,0.17854,1.0376,0.26614,1.67432,0.26614
		c1.04773,0,1.86304-0.25267,2.43915-0.75801c0.57605-0.50702,0.86243-1.23808,0.86243-2.19318
		c0-0.64178-0.13477-1.18755-0.40765-1.6356c-0.27625-0.44975-0.62665-0.79507-1.05444-1.03764
		c-0.41443-0.25772-0.88605-0.48512-1.41833-0.68388l-1.59686-0.59967c-0.52893-0.19876-1.00732-0.43796-1.42847-0.7159
		c-0.42108-0.27794-0.76807-0.67041-1.04095-1.17744c-0.27289-0.50534-0.41101-1.10837-0.41101-1.80742
		c0-0.74454,0.14484-1.38632,0.43457-1.92366c0.28638-0.53734,0.67377-0.9433,1.16229-1.21619
		c0.48846-0.27119,0.98706-0.46828,1.49579-0.59125c0.50873-0.12128,1.04437-0.18192,1.60699-0.18192
		c0.89948,0,1.74512,0.12465,2.5368,0.37395s1.18585,0.55923,1.18585,0.92982c0,0.17181-0.06403,0.347-0.18866,0.52386
		c-0.12463,0.17856-0.27625,0.26784-0.45483,0.26784c-0.08759,0-0.25604-0.0657-0.50867-0.19708
		c-0.25269-0.13307-0.60303-0.26447-1.05115-0.39586c-0.45142-0.13307-0.96686-0.19876-1.54297-0.19876
		c-0.92981,0-1.69794,0.19203-2.30432,0.57777s-0.90961,1.01909-0.90961,1.90344c0,0.61314,0.18195,1.12691,0.54578,1.5396
		c0.36047,0.41438,0.81525,0.71422,1.36102,0.89951s1.13873,0.40596,1.77209,0.66199
		c0.63672,0.25772,1.22626,0.53229,1.77539,0.8237c0.54578,0.29311,1.00055,0.75633,1.36102,1.38969
		c0.36389,0.63504,0.54242,1.41663,0.54242,2.34308c0,1.46211-0.42108,2.55702-1.25995,3.28807
		c-0.84229,0.73106-1.98096,1.09659-3.41614,1.09659c-1.28357,0-2.36157-0.26447-3.23413-0.79506
		C599.89258,245.1073,599.45795,244.6087,599.45795,244.14211z"/>
	<path fill="#CBBBA0" d="M611.62317,244.14211c0-0.17014,0.07074-0.34531,0.20886-0.52386
		c0.14148-0.17856,0.29309-0.26784,0.45483-0.26784c0.11792,0,0.26611,0.09433,0.4447,0.27794l0.61987,0.62157
		c0.22235,0.2274,0.57269,0.43123,1.05109,0.60979c0.48175,0.17854,1.03766,0.26614,1.67438,0.26614
		c1.04773,0,1.86298-0.25267,2.43909-0.75801c0.57611-0.50702,0.86243-1.23808,0.86243-2.19318
		c0-0.64178-0.13477-1.18755-0.40759-1.6356c-0.27631-0.44975-0.62665-0.79507-1.0545-1.03764
		c-0.41437-0.25772-0.88605-0.48512-1.41833-0.68388l-1.59686-0.59967c-0.52893-0.19876-1.00732-0.43796-1.42841-0.7159
		c-0.42114-0.27794-0.76813-0.67041-1.04102-1.17744c-0.27289-0.50534-0.41101-1.10837-0.41101-1.80742
		c0-0.74454,0.1449-1.38632,0.43463-1.92366c0.28632-0.53734,0.67377-0.9433,1.16223-1.21619
		c0.48853-0.27119,0.98712-0.46828,1.49585-0.59125c0.50867-0.12128,1.04431-0.18192,1.60693-0.18192
		c0.89954,0,1.74512,0.12465,2.5368,0.37395s1.18585,0.55923,1.18585,0.92982c0,0.17181-0.06396,0.347-0.18866,0.52386
		c-0.12463,0.17856-0.27625,0.26784-0.45477,0.26784c-0.08759,0-0.25604-0.0657-0.50873-0.19708
		c-0.25269-0.13307-0.60303-0.26447-1.05109-0.39586c-0.45142-0.13307-0.96686-0.19876-1.54297-0.19876
		c-0.92981,0-1.69794,0.19203-2.30432,0.57777c-0.60645,0.38574-0.90967,1.01909-0.90967,1.90344
		c0,0.61314,0.18195,1.12691,0.54578,1.5396c0.36047,0.41438,0.81531,0.71422,1.36108,0.89951s1.13867,0.40596,1.77203,0.66199
		c0.63672,0.25772,1.22632,0.53229,1.77545,0.8237c0.54572,0.29311,1.00055,0.75633,1.36102,1.38969
		c0.36383,0.63504,0.54242,1.41663,0.54242,2.34308c0,1.46211-0.42114,2.55702-1.26001,3.28807
		c-0.84222,0.73106-1.9809,1.09659-3.41608,1.09659c-1.28357,0-2.36163-0.26447-3.23419-0.79506
		C612.05774,245.1073,611.62317,244.6087,611.62317,244.14211z"/>
	<path fill="#CBBBA0" d="M624.67773,245.72551v-14.56557c0-0.34193,0.24261-0.51375,0.73108-0.51375
		c0.48853,0,0.73108,0.17181,0.73108,0.51375v14.56557c0,0.17012-0.07416,0.30656-0.22235,0.40594
		c-0.14825,0.09938-0.31671,0.14992-0.50873,0.14992c-0.20551,0-0.38068-0.05054-0.52216-0.14992
		C624.74854,246.03207,624.67773,245.89563,624.67773,245.72551z"/>
	<path fill="#CBBBA0" d="M629.48859,231.24586c0-0.17183,0.08759-0.315,0.26617-0.42786
		c0.17517-0.11455,0.36719-0.17181,0.57605-0.17181c0.32343,0,0.51544,0.12128,0.57611,0.36383l4.09998,13.13208l4.07642-13.13208
		c0.08759-0.24255,0.27283-0.36383,0.55585-0.36383c0.20551,0,0.4043,0.06064,0.59631,0.18024s0.28973,0.26445,0.28973,0.43291
		c0,0.01347-0.01013,0.03537-0.02698,0.06401c-0.0202,0.02695-0.02692,0.04884-0.02692,0.06232l-4.59863,14.50491
		c-0.10107,0.347-0.39752,0.51881-0.88263,0.51881c-0.47168,0-0.758-0.17014-0.86243-0.51376l-4.61884-14.50154
		C629.4953,231.36714,629.48859,231.3166,629.48859,231.24586z"/>
	<path fill="#CBBBA0" d="M643.87054,245.72551v-14.54535c0-0.17014,0.06738-0.30151,0.19873-0.39417
		c0.13477-0.09264,0.28973-0.1398,0.4649-0.1398h7.89008c0.37054,0,0.55585,0.20718,0.55585,0.61987
		c0,0.18529-0.05054,0.347-0.14484,0.48177c-0.09772,0.13643-0.23248,0.20381-0.41101,0.20381h-7.09161v5.88046h3.4801
		c0.17853,0,0.31329,0.06233,0.41101,0.18192c0.09436,0.12129,0.14148,0.27458,0.14148,0.45987
		c0,0.38574-0.18188,0.57777-0.55249,0.57777h-3.4801v5.92426h7.09161c0.16168,0,0.29645,0.06569,0.40088,0.19371
		c0.10107,0.12802,0.15497,0.28467,0.15497,0.46996c0,0.42786-0.1853,0.64178-0.55585,0.64178h-7.89008
		c-0.17517,0-0.33014-0.05054-0.4649-0.14992C643.93793,246.03207,643.87054,245.89563,643.87054,245.72551z"/>
	<path fill="#CBBBA0" d="M660.75897,231.24586c0-0.17183,0.08759-0.315,0.26611-0.42786
		c0.17523-0.11455,0.36725-0.17181,0.57611-0.17181c0.32343,0,0.51544,0.12128,0.57611,0.36383l4.09998,13.13208l4.07635-13.13208
		c0.08759-0.24255,0.27289-0.36383,0.55591-0.36383c0.20551,0,0.40424,0.06064,0.59631,0.18024
		c0.19202,0.1196,0.28967,0.26445,0.28967,0.43291c0,0.01347-0.01007,0.03537-0.02692,0.06401
		c-0.0202,0.02695-0.02698,0.04884-0.02698,0.06232l-4.59857,14.50491c-0.10107,0.347-0.39752,0.51881-0.88263,0.51881
		c-0.47168,0-0.75806-0.17014-0.86249-0.51376l-4.61877-14.50154C660.76569,231.36714,660.75897,231.3166,660.75897,231.24586z"/>
	<path fill="#CBBBA0" d="M675.14093,245.72551v-14.56557c0-0.34193,0.24255-0.51375,0.73102-0.51375
		c0.48853,0,0.73108,0.17181,0.73108,0.51375v14.56557c0,0.17012-0.0741,0.30656-0.22235,0.40594s-0.31671,0.14992-0.50873,0.14992
		c-0.20551,0-0.38068-0.05054-0.52216-0.14992C675.21167,246.03207,675.14093,245.89563,675.14093,245.72551z"/>
	<path fill="#CBBBA0" d="M680.30548,244.14211c0-0.17014,0.07074-0.34531,0.20886-0.52386
		c0.14148-0.17856,0.29309-0.26784,0.45483-0.26784c0.11786,0,0.26611,0.09433,0.44464,0.27794l0.61993,0.62157
		c0.22235,0.2274,0.57269,0.43123,1.05109,0.60979c0.48175,0.17854,1.0376,0.26614,1.67438,0.26614
		c1.04773,0,1.86298-0.25267,2.43909-0.75801c0.57605-0.50702,0.86243-1.23808,0.86243-2.19318
		c0-0.64178-0.13477-1.18755-0.40765-1.6356c-0.27625-0.44975-0.62659-0.79507-1.05444-1.03764
		c-0.41437-0.25772-0.88605-0.48512-1.41833-0.68388l-1.59686-0.59967c-0.52893-0.19876-1.00732-0.43796-1.42841-0.7159
		c-0.42114-0.27794-0.76813-0.67041-1.04102-1.17744c-0.27289-0.50534-0.41101-1.10837-0.41101-1.80742
		c0-0.74454,0.14484-1.38632,0.43457-1.92366c0.28638-0.53734,0.67383-0.9433,1.16229-1.21619
		c0.48853-0.27119,0.98712-0.46828,1.49579-0.59125c0.50873-0.12128,1.04437-0.18192,1.60699-0.18192
		c0.89954,0,1.74512,0.12465,2.5368,0.37395s1.18585,0.55923,1.18585,0.92982c0,0.17181-0.06403,0.347-0.18866,0.52386
		c-0.12463,0.17856-0.27625,0.26784-0.45477,0.26784c-0.08759,0-0.25604-0.0657-0.50873-0.19708
		c-0.25269-0.13307-0.60303-0.26447-1.05109-0.39586c-0.45148-0.13307-0.96692-0.19876-1.54297-0.19876
		c-0.92987,0-1.69794,0.19203-2.30438,0.57777c-0.60638,0.38574-0.90961,1.01909-0.90961,1.90344
		c0,0.61314,0.18195,1.12691,0.54578,1.5396c0.36047,0.41438,0.81531,0.71422,1.36102,0.89951
		c0.54578,0.18529,1.13873,0.40596,1.77209,0.66199c0.63672,0.25772,1.22626,0.53229,1.77539,0.8237
		c0.54578,0.29311,1.00061,0.75633,1.36108,1.38969c0.36383,0.63504,0.54236,1.41663,0.54236,2.34308
		c0,1.46211-0.42108,2.55702-1.25995,3.28807c-0.84222,0.73106-1.98096,1.09659-3.41608,1.09659
		c-1.28357,0-2.36163-0.26447-3.23419-0.79506C680.74005,245.1073,680.30548,244.6087,680.30548,244.14211z"/>
	<path fill="#CBBBA0" d="M693.28931,241.8327v-10.67276c0-0.34193,0.24591-0.51375,0.73108-0.51375
		c0.48846,0,0.73102,0.17181,0.73102,0.51375v10.67276c0,1.08311,0.27966,1.90009,0.83215,2.44922
		c0.55585,0.54913,1.34082,0.8237,2.36163,0.8237c1.0174,0,1.80573-0.27457,2.35822-0.8237
		c0.55591-0.54913,0.83215-1.3661,0.83215-2.44922v-10.67276c0-0.34193,0.24255-0.51375,0.73102-0.51375
		c0.48853,0,0.73108,0.17181,0.73108,0.51375v10.67276c0,1.5834-0.4245,2.74063-1.27344,3.47505
		c-0.849,0.73442-1.9776,1.10164-3.37903,1.10164c-1.40485,0-2.53009-0.36722-3.38245-1.10164
		C693.71381,244.57333,693.28931,243.41611,693.28931,241.8327z"/>
	<path fill="#CBBBA0" d="M705.89923,245.6817c0-0.07074,0.00671-0.1196,0.02356-0.14822l4.63226-14.52345
		c0.10107-0.32846,0.38745-0.49185,0.85907-0.49185c0.46826,0,0.76141,0.16507,0.87927,0.49522l4.62219,14.55545
		c0,0.01347,0.00336,0.03369,0.01013,0.06064c0.00671,0.02864,0.01007,0.04716,0.01007,0.06064
		c0,0.16339-0.0943,0.30321-0.28632,0.41776c-0.19208,0.11623-0.39417,0.17349-0.59967,0.17349
		c-0.27966,0-0.46497-0.12128-0.55255-0.36385l-1.02075-3.29312h-6.12134l-1.02753,3.29649
		c-0.06067,0.24088-0.25269,0.36047-0.57947,0.36047c-0.20886,0-0.40088-0.05727-0.57947-0.17181
		C705.99017,245.9967,705.89923,245.85352,705.89923,245.6817z M708.73584,241.40486h5.36334l-2.67157-8.63794L708.73584,241.40486z
		"/>
	<path fill="#CBBBA0" d="M720.30475,245.72551v-14.56557c0-0.34193,0.24255-0.51375,0.73102-0.51375
		c0.48853,0,0.73108,0.17181,0.73108,0.51375v13.81598h6.31671c0.32343,0,0.48853,0.21393,0.48853,0.64177
		c0,0.44302-0.1651,0.66368-0.48853,0.66368h-7.11517c-0.17517,0-0.33014-0.05054-0.4649-0.14992
		C720.37213,246.03207,720.30475,245.89563,720.30475,245.72551z"/>
</g>
<g>
	<path fill="#CBBBA0" d="M522.52179,267.3439v-14.58745c0-0.14319,0.06403-0.26447,0.18866-0.36385
		c0.12469-0.09938,0.28302-0.14992,0.47504-0.14992h3.9248c1.40149,0,2.52667,0.36722,3.3689,1.10164
		c0.84229,0.73442,1.26337,1.8866,1.26337,3.45483v6.50201c0,1.58173-0.42108,2.74063-1.26337,3.47507
		c-0.84222,0.73441-1.96741,1.10162-3.3689,1.10162h-3.9248c-0.19202,0-0.35034-0.05389-0.47504-0.16
		C522.58582,267.61005,522.52179,267.48538,522.52179,267.3439z M523.98395,266.57242h3.12634
		c1.00391,0,1.78217-0.27289,2.33801-0.82202c0.55249-0.54913,0.8288-1.36609,0.8288-2.44922v-6.50201
		c0-1.08479-0.27631-1.89671-0.8288-2.4391c-0.55585-0.54071-1.33411-0.8119-2.33801-0.8119h-3.12634V266.57242z"/>
	<path fill="#CBBBA0" d="M536.63763,267.32199v-14.54532c0-0.17014,0.06738-0.30153,0.19873-0.39417
		c0.13477-0.09265,0.28973-0.13982,0.4649-0.13982h7.89001c0.37061,0,0.55591,0.20718,0.55591,0.61989
		c0,0.18529-0.05054,0.347-0.1449,0.48175c-0.09766,0.13644-0.23242,0.20383-0.41101,0.20383h-7.09155v5.88046h3.4801
		c0.17853,0,0.31329,0.06232,0.41101,0.18192c0.0943,0.12128,0.14148,0.27457,0.14148,0.45987
		c0,0.38574-0.18195,0.57776-0.55249,0.57776h-3.4801v5.92426h7.09155c0.16174,0,0.29651,0.0657,0.40094,0.19373
		c0.10107,0.12802,0.15497,0.28467,0.15497,0.46994c0,0.42786-0.1853,0.64178-0.55591,0.64178h-7.89001
		c-0.17517,0-0.33014-0.05054-0.4649-0.1499C536.70502,267.62857,536.63763,267.49213,536.63763,267.32199z"/>
	<path fill="#CBBBA0" d="M549.42603,263.4292v-6.63004c0-1.55476,0.43463-2.70187,1.29706-3.44473
		c0.86584-0.74117,1.98431-1.11174,3.35883-1.11174c1.40149,0,2.51324,0.34532,3.33527,1.03763
		c0.8186,0.69232,1.22961,1.53622,1.22961,2.53511c0,0.34195-0.05389,0.56937-0.16504,0.6839
		c-0.11121,0.11453-0.29987,0.17014-0.56598,0.17014c-0.45819,0-0.70074-0.17688-0.73108-0.53397
		c-0.01685-0.21394-0.04382-0.42113-0.08759-0.61989c-0.04718-0.20045-0.13477-0.4245-0.26617-0.6738
		c-0.13477-0.2493-0.30994-0.4666-0.52216-0.65189c-0.21564-0.18529-0.51208-0.33858-0.89612-0.45985
		c-0.38745-0.12128-0.8288-0.18192-1.33075-0.18192c-2.12915,0-3.19037,1.0831-3.19037,3.25101v6.63004
		c0,2.1814,1.09155,3.27292,3.27795,3.27292c0.61987,0,1.13873-0.08252,1.5531-0.24594
		c0.41101-0.16507,0.71417-0.40259,0.90625-0.71756c0.19202-0.31332,0.32336-0.58115,0.38739-0.80182
		c0.06738-0.22067,0.12463-0.5087,0.16846-0.86581c0.04382-0.37057,0.28638-0.55588,0.73108-0.55588
		c0.26611,0,0.45477,0.06064,0.56598,0.18195c0.11115,0.12128,0.16504,0.35205,0.16504,0.694
		c0,1.01236-0.41772,1.86804-1.25323,2.56711s-1.96069,1.04773-3.37903,1.04773c-1.35767,0-2.46271-0.37057-3.31165-1.11172
		C549.85052,266.15298,549.42603,264.99744,549.42603,263.4292z"/>
	<path fill="#CBBBA0" d="M562.90173,267.32199v-14.56554c0-0.34195,0.24261-0.51376,0.73108-0.51376
		c0.48853,0,0.73108,0.17181,0.73108,0.51376v14.56554c0,0.17014-0.07416,0.30658-0.22235,0.40598
		c-0.14825,0.09937-0.31671,0.1499-0.50873,0.1499c-0.20551,0-0.38068-0.05054-0.52216-0.1499
		C562.97253,267.62857,562.90173,267.49213,562.90173,267.32199z"/>
	<path fill="#CBBBA0" d="M568.55481,265.73862c0-0.17014,0.07074-0.34534,0.20886-0.52386
		c0.14154-0.17856,0.29309-0.26785,0.45483-0.26785c0.11792,0,0.26611,0.09433,0.4447,0.27795l0.61987,0.62155
		c0.22235,0.22742,0.57269,0.43124,1.05109,0.60977c0.48175,0.17856,1.03766,0.26614,1.67438,0.26614
		c1.04773,0,1.86304-0.25266,2.43909-0.758c0.57611-0.50702,0.86243-1.23807,0.86243-2.19318
		c0-0.64178-0.1347-1.18753-0.40759-1.63562c-0.27625-0.44974-0.62665-0.79504-1.0545-1.03763
		c-0.41437-0.25772-0.88605-0.48511-1.41833-0.68387l-1.59686-0.59967c-0.52893-0.19876-1.00726-0.43796-1.42841-0.71591
		c-0.42114-0.27792-0.76813-0.67041-1.04102-1.17743c-0.27289-0.50534-0.41101-1.10837-0.41101-1.80743
		c0-0.74454,0.1449-1.38631,0.43463-1.92366c0.28632-0.53734,0.67377-0.9433,1.16223-1.21617
		c0.48853-0.27121,0.98712-0.46829,1.49585-0.59125c0.50867-0.12129,1.04437-0.18193,1.60693-0.18193
		c0.89954,0,1.74512,0.12465,2.5368,0.37395c0.79175,0.24931,1.18591,0.55925,1.18591,0.92982
		c0,0.17181-0.06403,0.347-0.18866,0.52388c-0.12469,0.17854-0.27631,0.26782-0.45483,0.26782
		c-0.08759,0-0.25604-0.06569-0.50873-0.19708c-0.25262-0.13307-0.60303-0.26447-1.05109-0.39584
		c-0.45142-0.13307-0.96686-0.19878-1.54297-0.19878c-0.92981,0-1.69794,0.19203-2.30432,0.57777
		c-0.60645,0.38574-0.90961,1.0191-0.90961,1.90344c0,0.61316,0.18188,1.12692,0.54572,1.53961
		c0.36047,0.41437,0.81531,0.7142,1.36108,0.89951c0.54578,0.18527,1.13867,0.40594,1.77203,0.66199
		c0.63672,0.25772,1.22632,0.53229,1.77545,0.8237c0.54578,0.29309,1.00055,0.75632,1.36102,1.38968
		c0.36383,0.63504,0.54242,1.41663,0.54242,2.34308c0,1.46213-0.42114,2.55704-1.26001,3.28809
		c-0.84222,0.73105-1.9809,1.09659-3.41608,1.09659c-1.28357,0-2.36163-0.26447-3.23419-0.79507
		C568.98938,266.7038,568.55481,266.2052,568.55481,265.73862z"/>
	<path fill="#CBBBA0" d="M582.09454,267.32199v-14.56554c0-0.34195,0.24255-0.51376,0.73102-0.51376
		c0.48853,0,0.73108,0.17181,0.73108,0.51376v14.56554c0,0.17014-0.0741,0.30658-0.22235,0.40598
		c-0.14825,0.09937-0.31665,0.1499-0.50873,0.1499c-0.20551,0-0.38068-0.05054-0.52216-0.1499
		C582.16528,267.62857,582.09454,267.49213,582.09454,267.32199z"/>
	<path fill="#CBBBA0" d="M588.45172,263.4292v-6.63004c0-1.56824,0.41772-2.72041,1.25323-3.45483
		c0.83545-0.73442,1.95398-1.10164,3.35883-1.10164c1.40143,0,2.51996,0.36722,3.35541,1.10164
		c0.83551,0.73442,1.25323,1.8866,1.25323,3.45483v6.63004c0,1.5834-0.41772,2.74063-1.25323,3.47507
		c-0.83545,0.73441-1.95398,1.10162-3.35541,1.10162c-1.40485,0-2.52338-0.36722-3.35883-1.10162
		C588.86945,266.16983,588.45172,265.0126,588.45172,263.4292z M589.91718,263.4292c0,2.1814,1.04773,3.27292,3.14661,3.27292
		c2.09546,0,3.14655-1.09152,3.14655-3.27292v-6.63004c0-2.16791-1.05109-3.25101-3.14655-3.25101
		c-2.09888,0-3.14661,1.0831-3.14661,3.25101V263.4292z"/>
	<path fill="#CBBBA0" d="M602.57086,267.32199v-14.54532c0-0.35542,0.24255-0.53398,0.73108-0.53398
		c0.41437,0,0.7984,0.32848,1.15216,0.98372l5.98322,11.37857v-11.84853c0-0.34195,0.24591-0.51376,0.73102-0.51376
		c0.48853,0,0.73444,0.17181,0.73444,0.51376v14.56554c0,0.17014-0.0741,0.30658-0.22235,0.40598
		c-0.14819,0.09937-0.32001,0.1499-0.51208,0.1499c-0.36719,0-0.69397-0.27118-0.97357-0.8136l-6.1618-11.57057v11.82829
		c0,0.17014-0.0741,0.30658-0.22235,0.40598c-0.14819,0.09937-0.31665,0.1499-0.50867,0.1499
		c-0.20551,0-0.38074-0.05054-0.52222-0.1499C602.6416,267.62857,602.57086,267.49213,602.57086,267.32199z"/>
	<path fill="#CBBBA0" d="M616.44409,262.75543c0-0.18192,0.05054-0.33353,0.15497-0.45312
		c0.10443-0.11792,0.23584-0.17856,0.40094-0.17856h5.76086c0.14819,0,0.27625,0.06064,0.38739,0.17856
		c0.11121,0.1196,0.1651,0.27121,0.1651,0.45312c0,0.16843-0.05389,0.30826-0.1651,0.41943
		c-0.11115,0.11285-0.2392,0.16843-0.38739,0.16843H617C616.62939,263.34329,616.44409,263.14792,616.44409,262.75543z"/>
	<path fill="#CBBBA0" d="M627.83783,267.32199v-14.3954c0-0.45482,0.24255-0.6839,0.73102-0.6839
		c0.42786,0,0.81866,0.32848,1.17578,0.98372l3.81024,7.10172l3.81366-7.10172c0.3537-0.65524,0.74451-0.98372,1.17236-0.98372
		c0.48846,0,0.73108,0.22908,0.73108,0.6839v14.3954c0,0.17014-0.06738,0.30658-0.20892,0.40598
		c-0.14148,0.09937-0.31329,0.1499-0.52216,0.1499c-0.19202,0-0.36047-0.05054-0.50873-0.1499
		c-0.14819-0.0994-0.22235-0.23584-0.22235-0.40598v-12.02031l-3.67883,6.71596c-0.16174,0.29984-0.36047,0.44974-0.59631,0.44974
		c-0.22235,0-0.41437-0.1499-0.57611-0.44974l-3.65863-6.77997v12.08432c0,0.17014-0.0741,0.30658-0.22235,0.40598
		c-0.14825,0.09937-0.31665,0.1499-0.50873,0.1499c-0.20551,0-0.38068-0.05054-0.52216-0.1499
		C627.90857,267.62857,627.83783,267.49213,627.83783,267.32199z"/>
	<path fill="#CBBBA0" d="M643.12939,267.2782c0-0.07074,0.00671-0.1196,0.02356-0.14822l4.63226-14.52344
		c0.10107-0.32848,0.38745-0.49187,0.85907-0.49187c0.46832,0,0.76141,0.16508,0.87927,0.49524l4.62219,14.55544
		c0,0.01349,0.00336,0.03369,0.01013,0.06064c0.00671,0.02866,0.01007,0.04718,0.01007,0.06064
		c0,0.16339-0.0943,0.30322-0.28632,0.41776c-0.19208,0.11624-0.39417,0.17349-0.59967,0.17349
		c-0.27966,0-0.46497-0.12128-0.55255-0.36383l-1.02075-3.29312h-6.12134l-1.02753,3.29648
		c-0.06067,0.24088-0.25269,0.36047-0.57947,0.36047c-0.20886,0-0.40088-0.05725-0.57947-0.17181
		C643.22034,267.5932,643.12939,267.45001,643.12939,267.2782z M645.966,263.00134h5.36334l-2.67157-8.63791L645.966,263.00134z"/>
	<path fill="#CBBBA0" d="M658.02002,267.32199v-14.56554c0-0.34195,0.24255-0.51376,0.73108-0.51376
		c0.48846,0,0.73102,0.17181,0.73102,0.51376v7.57167l6.40436-7.87151c0.10443-0.14149,0.2594-0.21393,0.4649-0.21393
		c0.17853,0,0.35712,0.07916,0.53229,0.23582c0.17853,0.15666,0.26617,0.32005,0.26617,0.49187
		c0,0.12802-0.03711,0.23413-0.11121,0.32004l-4.76367,5.71034l5.45093,7.91528c0.06067,0.11285,0.09094,0.20551,0.09094,0.27795
		c0,0.18527-0.09094,0.35205-0.26611,0.50195c-0.17859,0.14993-0.37061,0.22403-0.57611,0.22403
		c-0.20886,0-0.39417-0.10611-0.55585-0.32004l-5.11743-7.42175l-1.81921,2.22348v4.92032c0,0.17014-0.0741,0.30658-0.22235,0.40598
		c-0.14819,0.09937-0.31665,0.1499-0.50867,0.1499c-0.20551,0-0.38074-0.05054-0.52222-0.1499
		C658.09076,267.62857,658.02002,267.49213,658.02002,267.32199z"/>
	<path fill="#CBBBA0" d="M671.29694,267.32199v-14.56554c0-0.34195,0.24261-0.51376,0.73108-0.51376
		c0.48853,0,0.73108,0.17181,0.73108,0.51376v14.56554c0,0.17014-0.07416,0.30658-0.22235,0.40598
		c-0.14825,0.09937-0.31671,0.1499-0.50873,0.1499c-0.20551,0-0.38068-0.05054-0.52216-0.1499
		C671.36774,267.62857,671.29694,267.49213,671.29694,267.32199z"/>
	<path fill="#CBBBA0" d="M677.8327,267.32199v-14.54532c0-0.35542,0.24255-0.53398,0.73102-0.53398
		c0.41437,0,0.79846,0.32848,1.15216,0.98372l5.98322,11.37857v-11.84853c0-0.34195,0.24597-0.51376,0.73108-0.51376
		c0.48853,0,0.73444,0.17181,0.73444,0.51376v14.56554c0,0.17014-0.0741,0.30658-0.22235,0.40598
		c-0.14825,0.09937-0.32007,0.1499-0.51208,0.1499c-0.36719,0-0.69397-0.27118-0.97363-0.8136l-6.16174-11.57057v11.82829
		c0,0.17014-0.0741,0.30658-0.22235,0.40598c-0.14825,0.09937-0.31671,0.1499-0.50873,0.1499
		c-0.20551,0-0.38068-0.05054-0.52216-0.1499C677.90344,267.62857,677.8327,267.49213,677.8327,267.32199z"/>
	<path fill="#CBBBA0" d="M692.05963,263.4292v-6.63004c0-1.56824,0.41779-2.72041,1.25323-3.45483
		c0.83551-0.73442,1.94727-1.10164,3.33527-1.10164c1.40485,0,2.52667,0.34532,3.3689,1.03763
		c0.84229,0.69232,1.26337,1.58003,1.26337,2.66313c0,0.48514-0.24255,0.72601-0.73102,0.72601
		c-0.47504,0-0.71759-0.17688-0.73108-0.53397c-0.20886-1.7249-1.25659-2.58734-3.14661-2.58734
		c-2.09882,0-3.14655,1.0831-3.14655,3.25101v6.63004c0,1.09827,0.27289,1.91861,0.81866,2.45932
		c0.54572,0.54239,1.32062,0.8136,2.32788,0.8136c1.00397,0,1.77881-0.27121,2.32458-0.8136
		c0.54913-0.54071,0.82202-1.36105,0.82202-2.45932v-2.54523h-2.97137c-0.16174,0-0.28973-0.06064-0.38745-0.18192
		c-0.09436-0.12128-0.14484-0.26782-0.14484-0.43796c0-0.15665,0.05048-0.29645,0.14484-0.41776
		c0.09772-0.12128,0.22571-0.18192,0.38745-0.18192h3.90118c0.35376,0,0.53229,0.1853,0.53229,0.55588v3.20889
		c0,1.5834-0.41772,2.74063-1.25323,3.47507c-0.83551,0.73441-1.95398,1.10162-3.35547,1.10162
		c-1.40485,0-2.52332-0.36722-3.35883-1.10162C692.47742,266.16983,692.05963,265.0126,692.05963,263.4292z"/>
	<path fill="#CBBBA0" d="M712.07446,267.32199v-14.56554c0-0.34195,0.24255-0.51376,0.73102-0.51376
		c0.48853,0,0.73108,0.17181,0.73108,0.51376v14.56554c0,0.17014-0.0741,0.30658-0.22235,0.40598
		c-0.14825,0.09937-0.31665,0.1499-0.50873,0.1499c-0.20551,0-0.38068-0.05054-0.52216-0.1499
		C712.1452,267.62857,712.07446,267.49213,712.07446,267.32199z"/>
	<path fill="#CBBBA0" d="M718.61353,267.32199v-14.54532c0-0.35542,0.24255-0.53398,0.73108-0.53398
		c0.41437,0,0.7984,0.32848,1.15216,0.98372l5.98322,11.37857v-11.84853c0-0.34195,0.24591-0.51376,0.73108-0.51376
		c0.48846,0,0.73438,0.17181,0.73438,0.51376v14.56554c0,0.17014-0.0741,0.30658-0.22235,0.40598
		c-0.14819,0.09937-0.32001,0.1499-0.51202,0.1499c-0.36725,0-0.69403-0.27118-0.97363-0.8136l-6.1618-11.57057v11.82829
		c0,0.17014-0.0741,0.30658-0.22235,0.40598c-0.14819,0.09937-0.31665,0.1499-0.50867,0.1499
		c-0.20551,0-0.38068-0.05054-0.52222-0.1499C718.68427,267.62857,718.61353,267.49213,718.61353,267.32199z"/>
</g>
<g>
	<path fill="#CBBBA0" d="M522.52515,290.15491v-14.58746c0-0.14316,0.06403-0.26447,0.18866-0.36383
		c0.12469-0.0994,0.28302-0.14993,0.47504-0.14993h3.9248c1.40149,0,2.52667,0.36722,3.36896,1.10165
		c0.84222,0.73441,1.26331,1.8866,1.26331,3.45483v6.50201c0,1.58173-0.42108,2.74063-1.26331,3.47507
		c-0.84229,0.73441-1.96747,1.10162-3.36896,1.10162h-3.9248c-0.19202,0-0.35034-0.05389-0.47504-0.16003
		C522.58917,290.42105,522.52515,290.29639,522.52515,290.15491z M523.9873,289.38342h3.12634
		c1.00397,0,1.78217-0.27289,2.33801-0.82202c0.55255-0.54913,0.8288-1.36609,0.8288-2.44922v-6.50201
		c0-1.08481-0.27625-1.8967-0.8288-2.43912c-0.55585-0.54071-1.33405-0.81189-2.33801-0.81189h-3.12634V289.38342z"/>
	<path fill="#CBBBA0" d="M536.70837,290.133v-14.56555c0-0.34195,0.24255-0.51376,0.73102-0.51376
		c0.48853,0,0.73108,0.17181,0.73108,0.51376V290.133c0,0.17014-0.0741,0.30658-0.22235,0.40598
		c-0.14825,0.09937-0.31665,0.1499-0.50873,0.1499c-0.20551,0-0.38068-0.05054-0.52216-0.1499
		C536.77911,290.43958,536.70837,290.30313,536.70837,290.133z"/>
	<path fill="#CBBBA0" d="M543.13629,286.2402v-6.63004c0-1.56824,0.41772-2.72043,1.25323-3.45483
		c0.83545-0.73444,1.9472-1.10165,3.33521-1.10165c1.40485,0,2.52673,0.34534,3.36896,1.03763
		c0.84222,0.69232,1.26331,1.58005,1.26331,2.66315c0,0.48514-0.24255,0.72601-0.73102,0.72601
		c-0.47504,0-0.71759-0.17688-0.73108-0.534c-0.20886-1.72488-1.25659-2.58731-3.14655-2.58731
		c-2.09888,0-3.14661,1.0831-3.14661,3.25101v6.63004c0,1.09827,0.27289,1.91861,0.81866,2.45932
		c0.54578,0.54239,1.32062,0.8136,2.32794,0.8136c1.00391,0,1.77875-0.27121,2.32452-0.8136
		c0.54913-0.54071,0.82202-1.36105,0.82202-2.45932v-2.54523h-2.97137c-0.16174,0-0.28973-0.06064-0.38745-0.18192
		c-0.0943-0.12128-0.14484-0.26782-0.14484-0.43796c0-0.15665,0.05054-0.29648,0.14484-0.41776
		c0.09772-0.12128,0.22571-0.18192,0.38745-0.18192h3.90118c0.35376,0,0.53229,0.1853,0.53229,0.55588v3.20889
		c0,1.5834-0.41772,2.74063-1.25323,3.47507c-0.83545,0.73441-1.95398,1.10162-3.35541,1.10162
		c-1.40485,0-2.52338-0.36722-3.35883-1.10162C543.55402,288.98083,543.13629,287.82361,543.13629,286.2402z"/>
	<path fill="#CBBBA0" d="M557.0769,290.133v-14.56555c0-0.34195,0.24255-0.51376,0.73102-0.51376
		c0.48853,0,0.73108,0.17181,0.73108,0.51376V290.133c0,0.17014-0.0741,0.30658-0.22235,0.40598
		c-0.14825,0.09937-0.31665,0.1499-0.50873,0.1499c-0.20551,0-0.38068-0.05054-0.52216-0.1499
		C557.14764,290.43958,557.0769,290.30313,557.0769,290.133z"/>
	<path fill="#CBBBA0" d="M562.32904,275.70557c0-0.16843,0.04718-0.31836,0.14148-0.45142
		c0.09772-0.13309,0.23584-0.20047,0.41101-0.20047h8.88727c0.17853,0,0.31329,0.06403,0.41101,0.19037
		c0.0943,0.12631,0.14484,0.27286,0.14484,0.44131c0,0.18192-0.05054,0.34027-0.14484,0.47333
		c-0.09772,0.13309-0.23248,0.20047-0.41101,0.20047h-3.6991v13.77216c0,0.17181-0.07416,0.30826-0.22235,0.40765
		c-0.14825,0.09937-0.32007,0.1499-0.51208,0.1499c-0.20551,0-0.38068-0.05054-0.5188-0.1499
		c-0.14154-0.0994-0.21228-0.23584-0.21228-0.40765v-13.77216h-3.72266c-0.16168,0-0.29645-0.06403-0.39752-0.19037
		C562.37958,276.04248,562.32904,275.88919,562.32904,275.70557z"/>
	<path fill="#CBBBA0" d="M574.89178,290.0892c0-0.07074,0.00671-0.1196,0.02356-0.14822l4.63226-14.52344
		c0.10107-0.32849,0.38745-0.49188,0.85907-0.49188c0.46832,0,0.76141,0.1651,0.87933,0.49524l4.62213,14.55545
		c0,0.01349,0.00336,0.03369,0.01013,0.06064c0.00671,0.02863,0.01007,0.04718,0.01007,0.06064
		c0,0.16339-0.0943,0.30322-0.28632,0.41776c-0.19208,0.11621-0.39417,0.17349-0.59967,0.17349
		c-0.27966,0-0.4649-0.12128-0.55255-0.36383l-1.02075-3.29312h-6.12134l-1.02753,3.29648
		c-0.06067,0.24088-0.25269,0.36047-0.57947,0.36047c-0.20886,0-0.40088-0.05728-0.57947-0.17181
		C574.98273,290.40421,574.89178,290.26102,574.89178,290.0892z M577.72839,285.81235h5.36334l-2.67157-8.63791L577.72839,285.81235
		z"/>
	<path fill="#CBBBA0" d="M589.85315,290.133v-14.56555c0-0.34195,0.24255-0.51376,0.73108-0.51376
		c0.48846,0,0.73108,0.17181,0.73108,0.51376v13.81598h6.31671c0.32343,0,0.48846,0.21393,0.48846,0.64178
		c0,0.44299-0.16504,0.66367-0.48846,0.66367h-7.11517c-0.17517,0-0.33014-0.05054-0.4649-0.1499
		C589.92053,290.43958,589.85315,290.30313,589.85315,290.133z"/>
	<path fill="#CBBBA0" d="M608.09253,290.133v-14.56555c0-0.34195,0.24255-0.51376,0.73108-0.51376
		c0.48846,0,0.73102,0.17181,0.73102,0.51376v6.39423h6.40436v-6.39423c0-0.34195,0.24591-0.51376,0.73108-0.51376
		c0.48846,0,0.73438,0.17181,0.73438,0.51376V290.133c0,0.17014-0.0741,0.30658-0.22235,0.40598
		c-0.14819,0.09937-0.32001,0.1499-0.51202,0.1499c-0.20551,0-0.38074-0.05054-0.51886-0.1499
		c-0.14148-0.0994-0.21222-0.23584-0.21222-0.40598v-6.95178h-6.40436v6.95178c0,0.17014-0.0741,0.30658-0.22235,0.40598
		c-0.14819,0.09937-0.31665,0.1499-0.50867,0.1499c-0.20551,0-0.38068-0.05054-0.52222-0.1499
		C608.16327,290.43958,608.09253,290.30313,608.09253,290.133z"/>
	<path fill="#CBBBA0" d="M622.49805,286.2402v-10.67276c0-0.34195,0.24597-0.51376,0.73108-0.51376
		c0.48846,0,0.73108,0.17181,0.73108,0.51376v10.67276c0,1.08313,0.2796,1.90009,0.83209,2.44922
		c0.55585,0.54913,1.34082,0.8237,2.36163,0.8237c1.0174,0,1.80573-0.27457,2.35822-0.8237
		c0.55591-0.54913,0.83215-1.36609,0.83215-2.44922v-10.67276c0-0.34195,0.24255-0.51376,0.73108-0.51376
		c0.48846,0,0.73102,0.17181,0.73102,0.51376v10.67276c0,1.5834-0.4245,2.74063-1.27344,3.47507
		c-0.849,0.73441-1.97754,1.10162-3.37903,1.10162c-1.40485,0-2.53009-0.36722-3.38239-1.10162
		C622.92255,288.98083,622.49805,287.82361,622.49805,286.2402z"/>
	<path fill="#CBBBA0" d="M636.88336,290.133v-14.39542c0-0.4548,0.24255-0.6839,0.73108-0.6839
		c0.42786,0,0.81866,0.32849,1.17572,0.98373l3.8103,7.10168l3.8136-7.10168c0.35376-0.65524,0.74457-0.98373,1.17242-0.98373
		c0.48846,0,0.73102,0.2291,0.73102,0.6839V290.133c0,0.17014-0.06738,0.30658-0.20886,0.40598
		c-0.14148,0.09937-0.31329,0.1499-0.52216,0.1499c-0.19208,0-0.36053-0.05054-0.50873-0.1499
		c-0.14825-0.0994-0.22235-0.23584-0.22235-0.40598v-12.02032l-3.67889,6.71597c-0.16168,0.29984-0.36047,0.44974-0.59625,0.44974
		c-0.22235,0-0.41443-0.1499-0.57611-0.44974l-3.65863-6.77997V290.133c0,0.17014-0.07416,0.30658-0.22235,0.40598
		c-0.14825,0.09937-0.31671,0.1499-0.50873,0.1499c-0.20551,0-0.38068-0.05054-0.52222-0.1499
		C636.9541,290.43958,636.88336,290.30313,636.88336,290.133z"/>
	<path fill="#CBBBA0" d="M652.23895,290.0892c0-0.07074,0.00671-0.1196,0.02356-0.14822l4.63226-14.52344
		c0.10107-0.32849,0.38745-0.49188,0.85913-0.49188c0.46826,0,0.76135,0.1651,0.87927,0.49524l4.62213,14.55545
		c0,0.01349,0.00342,0.03369,0.01013,0.06064c0.00671,0.02863,0.01013,0.04718,0.01013,0.06064
		c0,0.16339-0.09436,0.30322-0.28638,0.41776c-0.19202,0.11621-0.39417,0.17349-0.59967,0.17349
		c-0.2796,0-0.4649-0.12128-0.55249-0.36383l-1.02081-3.29312h-6.12134l-1.02753,3.29648
		c-0.06061,0.24088-0.25269,0.36047-0.57947,0.36047c-0.20886,0-0.40088-0.05728-0.57941-0.17181
		C652.3299,290.40421,652.23895,290.26102,652.23895,290.0892z M655.07556,285.81235h5.36334l-2.67157-8.63791L655.07556,285.81235z
		"/>
	<path fill="#CBBBA0" d="M667.20032,290.133v-14.54532c0-0.35544,0.24261-0.534,0.73108-0.534
		c0.41437,0,0.79846,0.32849,1.15216,0.98373l5.98322,11.37854v-11.84851c0-0.34195,0.24597-0.51376,0.73108-0.51376
		c0.48846,0,0.73444,0.17181,0.73444,0.51376V290.133c0,0.17014-0.07416,0.30658-0.22235,0.40598
		c-0.14825,0.09937-0.32007,0.1499-0.51208,0.1499c-0.36725,0-0.69403-0.27121-0.97363-0.8136l-6.16174-11.57056V290.133
		c0,0.17014-0.07416,0.30658-0.22235,0.40598c-0.14825,0.09937-0.31671,0.1499-0.50873,0.1499
		c-0.20551,0-0.38068-0.05054-0.52216-0.1499C667.27112,290.43958,667.20032,290.30313,667.20032,290.133z"/>
	<path fill="#CBBBA0" d="M681.67328,290.133v-14.56555c0-0.34195,0.24255-0.51376,0.73102-0.51376
		c0.48853,0,0.73108,0.17181,0.73108,0.51376V290.133c0,0.17014-0.0741,0.30658-0.22235,0.40598
		c-0.14825,0.09937-0.31671,0.1499-0.50873,0.1499c-0.20551,0-0.38068-0.05054-0.52216-0.1499
		C681.74402,290.43958,681.67328,290.30313,681.67328,290.133z"/>
	<path fill="#CBBBA0" d="M686.92542,275.70557c0-0.16843,0.04718-0.31836,0.14148-0.45142
		c0.09772-0.13309,0.23584-0.20047,0.41101-0.20047h8.88721c0.17859,0,0.31335,0.06403,0.41101,0.19037
		c0.09436,0.12631,0.1449,0.27286,0.1449,0.44131c0,0.18192-0.05054,0.34027-0.1449,0.47333
		c-0.09766,0.13309-0.23242,0.20047-0.41101,0.20047h-3.69904v13.77216c0,0.17181-0.07416,0.30826-0.22235,0.40765
		c-0.14825,0.09937-0.32007,0.1499-0.51208,0.1499c-0.20551,0-0.38068-0.05054-0.5188-0.1499
		c-0.14154-0.0994-0.21228-0.23584-0.21228-0.40765v-13.77216h-3.72266c-0.16168,0-0.29645-0.06403-0.39752-0.19037
		C686.97595,276.04248,686.92542,275.88919,686.92542,275.70557z"/>
	<path fill="#CBBBA0" d="M700.7077,290.133v-14.56555c0-0.34195,0.24255-0.51376,0.73102-0.51376
		c0.48853,0,0.73108,0.17181,0.73108,0.51376V290.133c0,0.17014-0.0741,0.30658-0.22235,0.40598
		c-0.14825,0.09937-0.31665,0.1499-0.50873,0.1499c-0.20551,0-0.38068-0.05054-0.52216-0.1499
		C700.77844,290.43958,700.7077,290.30313,700.7077,290.133z"/>
	<path fill="#CBBBA0" d="M707.31415,290.133v-14.54532c0-0.17014,0.06738-0.30154,0.19879-0.39417
		c0.13477-0.09265,0.28973-0.13983,0.4649-0.13983h7.89001c0.37061,0,0.55585,0.20718,0.55585,0.6199
		c0,0.18527-0.05054,0.34698-0.14484,0.48175c-0.09772,0.13644-0.23248,0.20383-0.41101,0.20383h-7.09161v5.88046h3.4801
		c0.17859,0,0.31335,0.06232,0.41101,0.18192c0.09436,0.12128,0.14154,0.27457,0.14154,0.45984
		c0,0.38574-0.18195,0.57779-0.55255,0.57779h-3.4801v5.92426h7.09161c0.16168,0,0.29645,0.0657,0.40088,0.1937
		c0.10107,0.12802,0.15497,0.2847,0.15497,0.46997c0,0.42786-0.18524,0.64178-0.55585,0.64178h-7.89001
		c-0.17517,0-0.33014-0.05054-0.4649-0.1499C707.38153,290.43958,707.31415,290.30313,707.31415,290.133z"/>
	<path fill="#CBBBA0" d="M719.45911,288.54962c0-0.17014,0.0708-0.34534,0.20892-0.5239
		c0.14148-0.17853,0.29309-0.26782,0.45477-0.26782c0.11792,0,0.26617,0.09433,0.4447,0.27795l0.61987,0.62155
		c0.22235,0.22742,0.57275,0.43121,1.05109,0.60977c0.48181,0.17856,1.03766,0.26614,1.67438,0.26614
		c1.04773,0,1.86304-0.25266,2.43909-0.758c0.57611-0.50702,0.86249-1.2381,0.86249-2.19318
		c0-0.64178-0.13477-1.18753-0.40765-1.63562c-0.27625-0.44974-0.62665-0.79504-1.0545-1.03763
		c-0.41437-0.25772-0.88599-0.48511-1.41827-0.6839l-1.59686-0.59964c-0.52893-0.19879-1.00732-0.43799-1.42847-0.71591
		c-0.42108-0.27792-0.76813-0.67041-1.04095-1.17743c-0.27289-0.50534-0.41101-1.1084-0.41101-1.80743
		c0-0.74454,0.14484-1.38632,0.43457-1.92368c0.28638-0.53732,0.67377-0.9433,1.16229-1.21616
		c0.48846-0.27121,0.98706-0.46829,1.49579-0.59125c0.50873-0.12131,1.04437-0.18195,1.60699-0.18195
		c0.89948,0,1.74506,0.12466,2.5368,0.37396c0.79169,0.2493,1.18585,0.55923,1.18585,0.92981
		c0,0.17184-0.06403,0.34702-0.18866,0.5239c-0.12463,0.17853-0.27625,0.26782-0.45483,0.26782
		c-0.08759,0-0.25604-0.0657-0.50867-0.19708c-0.25269-0.13309-0.60309-0.26447-1.05115-0.39584
		c-0.45142-0.13309-0.96686-0.19879-1.54297-0.19879c-0.92981,0-1.69794,0.19205-2.30432,0.57779s-0.90961,1.0191-0.90961,1.90344
		c0,0.61313,0.18188,1.12689,0.54578,1.53961c0.36047,0.41437,0.81525,0.7142,1.36102,0.89948
		c0.54578,0.1853,1.13867,0.40598,1.77203,0.66202c0.63678,0.25772,1.22632,0.53229,1.77545,0.8237
		c0.54578,0.29309,1.00055,0.75632,1.36102,1.38968c0.36389,0.63504,0.54242,1.41663,0.54242,2.34308
		c0,1.46213-0.42114,2.55701-1.26001,3.28809c-0.84222,0.73105-1.9809,1.09659-3.41608,1.09659
		c-1.28357,0-2.36157-0.26447-3.23413-0.79507C719.89374,289.5148,719.45911,289.0162,719.45911,288.54962z"/>
</g>
<line fill="none" stroke="#CBBBA0" stroke-width="1.20742" stroke-miterlimit="10" x1="378.23276" y1="309.46783" x2="418.41061" y2="449.34341"/>
<line fill="#CBBBA0" x1="380.33786" y1="211.15968" x2="456.74353" y2="70.96413"/>
<line fill="none" stroke="#CBBBA0" stroke-width="1.20742" stroke-miterlimit="10" x1="380.33786" y1="211.15968" x2="456.74353" y2="70.96413"/>
<line fill="none" stroke="#CBBBA0" stroke-width="1.20742" stroke-miterlimit="10" x1="392.96262" y1="211.97202" x2="451.98462" y2="166.21379"/>
<line fill="#CBBBA0" x1="367.85242" y1="205.23901" x2="357.05457" y2="83.04447"/>
<line fill="none" stroke="#CBBBA0" stroke-width="1.20742" stroke-miterlimit="10" x1="368.51358" y1="212.72139" x2="357.05457" y2="83.04447"/>
<line fill="none" stroke="#CBBBA0" stroke-width="1.20742" stroke-miterlimit="10" x1="347.4812" y1="211.75256" x2="451.68582" y2="99.34987"/>
<line fill="none" stroke="#CBBBA0" stroke-width="1.20742" stroke-miterlimit="10" x1="356.05106" y1="202.5085" x2="451.68582" y2="99.34987"/>
<line fill="#CBBBA0" x1="340.1431" y1="202.01811" x2="306.32138" y2="117.46753"/>
<line fill="none" stroke="#CBBBA0" stroke-width="1.20742" stroke-miterlimit="10" x1="343.16333" y1="209.92519" x2="306.32138" y2="117.46753"/>
<line fill="none" stroke="#CBBBA0" stroke-width="1.20742" stroke-miterlimit="10" x1="395.79691" y1="310.62756" x2="476.98129" y2="489.49228"/>
<line fill="none" stroke="#CBBBA0" stroke-width="1.20742" stroke-miterlimit="10" x1="403.86981" y1="309.25534" x2="428.53992" y2="397.08957"/>
<line fill="#CBBBA0" x1="333.93414" y1="321.69415" x2="343.16229" y2="413.62393"/>
<line fill="none" stroke="#CBBBA0" stroke-width="1.20742" stroke-miterlimit="10" x1="332.63528" y1="308.75494" x2="343.16229" y2="413.62393"/>
<line fill="none" stroke="#CBBBA0" stroke-width="1.20742" stroke-miterlimit="10" x1="346.94235" y1="308.16553" x2="335.03571" y2="438.76025"/>
<line fill="#CBBBA0" x1="320.78534" y1="316.82965" x2="183.72552" y2="456.88043"/>
<line fill="none" stroke="#CBBBA0" stroke-width="1.20742" stroke-miterlimit="10" x1="328.19061" y1="309.26276" x2="183.72552" y2="456.88043"/>
<line fill="none" stroke="#CBBBA0" stroke-width="1.20742" stroke-miterlimit="10" x1="260.87747" y1="310.45816" x2="238.07957" y2="351.18942"/>
<line fill="none" stroke="#CBBBA0" stroke-width="1.20742" stroke-miterlimit="10" x1="305.96048" y1="309.54016" x2="262.83823" y2="452.0498"/>
<line fill="none" stroke="#CBBBA0" stroke-width="1.20742" stroke-miterlimit="10" x1="266.47095" y1="308.63477" x2="153.72102" y2="337.90311"/>
<line fill="none" stroke="#CBBBA0" stroke-width="1.20742" stroke-miterlimit="10" x1="484.93402" y1="211.15968" x2="517.09467" y2="202.01726"/>
<line fill="none" stroke="#CBBBA0" stroke-width="1.20742" stroke-miterlimit="10" x1="325.29886" y1="211.15968" x2="229.62135" y2="159.74081"/>
<line fill="none" stroke="#CBBBA0" stroke-width="1.20742" stroke-miterlimit="10" x1="296.73486" y1="211.65604" x2="258.3045" y2="61.30079"/>
<line fill="#CBBBA0" x1="320.78534" y1="208.59804" x2="295.76053" y2="55.64858"/>
<line fill="none" stroke="#CBBBA0" stroke-width="1.20742" stroke-miterlimit="10" x1="320.78534" y1="208.59804" x2="295.76053" y2="55.64858"/>
<line fill="none" stroke="#CBBBA0" stroke-width="1.20742" stroke-miterlimit="10" x1="233.68494" y1="211.15968" x2="153.23122" y2="170.6134"/>
<line fill="none" stroke="#CBBBA0" stroke-width="1.20742" stroke-miterlimit="10" x1="440.10318" y1="210.1501" x2="544.8761" y2="57.81711"/>
<line fill="none" stroke="#CBBBA0" stroke-width="1.20742" stroke-miterlimit="10" x1="508.71207" y1="211.15968" x2="555.79889" y2="185.65662"/>
<line fill="none" stroke="#CBBBA0" stroke-width="1.20742" stroke-miterlimit="10" x1="212.4391" y1="308.95111" x2="192.18053" y2="317.18549"/>
<line fill="none" stroke="#CBBBA0" stroke-width="1.20742" stroke-miterlimit="10" x1="494.67426" y1="309.37341" x2="610.10181" y2="342.53043"/>
<line fill="none" stroke="#CBBBA0" stroke-width="1.20742" stroke-miterlimit="10" x1="441.45798" y1="309.37341" x2="520.72144" y2="382.64487"/>
<line fill="none" stroke="#CBBBA0" stroke-width="1.20742" stroke-miterlimit="10" x1="322.18524" y1="210.9738" x2="340.14435" y2="99.34776"/>
<line fill="none" stroke="#CBBBA0" stroke-width="1.20742" stroke-miterlimit="10" x1="428.54025" y1="210.57988" x2="598.62646" y2="83.04195"/>
<line fill="none" stroke="#CBBBA0" stroke-width="1.20742" stroke-miterlimit="10" x1="100.60871" y1="308.51166" x2="94.94543" y2="310.61334"/>
<line fill="#CBBBA0" x1="331.10089" y1="320.93448" x2="201.84103" y2="379.50146"/>
<line fill="none" stroke="#CBBBA0" stroke-width="1.20742" stroke-miterlimit="10" x1="356.35788" y1="309.49063" x2="201.84103" y2="379.50146"/>
<line fill="none" stroke="#CBBBA0" stroke-width="1.20742" stroke-miterlimit="10" x1="367.1077" y1="309.04941" x2="351.01431" y2="382.64246"/>
<line fill="none" stroke="#CBBBA0" stroke-width="1.20742" stroke-miterlimit="10" x1="452.06219" y1="211.38553" x2="544.87714" y2="145.29781"/>
<line fill="none" stroke="#CBBBA0" stroke-width="1.20742" stroke-miterlimit="10" x1="384.90601" y1="211.15968" x2="395.31409" y2="143.43605"/>
<line fill="none" stroke="#CBBBA0" stroke-width="1.20742" stroke-miterlimit="10" x1="472.08072" y1="308.16553" x2="526.20697" y2="347.1601"/>
<line fill="none" stroke="#CBBBA0" stroke-width="1.20742" stroke-miterlimit="10" x1="434.51871" y1="309.26276" x2="549.71094" y2="381.08505"/>
<line fill="none" stroke="#CBBBA0" stroke-width="1.20742" stroke-miterlimit="10" x1="303.63547" y1="211.75256" x2="296.53329" y2="104.18049"/>
<line fill="#CBBBA0" x1="340.85403" y1="322.6781" x2="302.13708" y2="412.18616"/>
<line fill="none" stroke="#CBBBA0" stroke-width="1.20742" stroke-miterlimit="10" x1="346.71103" y1="309.1376" x2="302.13708" y2="412.18616"/>
<line fill="none" stroke="#CBBBA0" stroke-width="1.20742" stroke-miterlimit="10" x1="398.01706" y1="211.15968" x2="408.61325" y2="18.42131"/>
<line fill="#CBBBA0" x1="313.87231" y1="212.72139" x2="254.38423" y2="137.99924"/>
<line fill="none" stroke="#CBBBA0" stroke-width="1.20742" stroke-miterlimit="10" x1="312.629" y1="211.15968" x2="254.38423" y2="137.99924"/>
<line fill="none" stroke="#CBBBA0" stroke-width="1.20742" stroke-miterlimit="10" x1="364.98587" y1="212.35362" x2="416.21661" y2="70.96582"/>
<line fill="none" stroke="#CBBBA0" stroke-width="1.20742" stroke-miterlimit="10" x1="414.10327" y1="309.49063" x2="440.50635" y2="363.80121"/>
<line fill="none" stroke="#CBBBA0" stroke-width="1.20742" stroke-miterlimit="10" x1="282.76605" y1="211.75256" x2="267.97321" y2="178.86958"/>
<line fill="#CBBBA0" x1="318.33939" y1="209.91508" x2="191.12184" y2="57.81775"/>
<line fill="none" stroke="#CBBBA0" stroke-width="1.20742" stroke-miterlimit="10" x1="318.33939" y1="209.91508" x2="191.12184" y2="57.81775"/>
<line fill="#CBBBA0" x1="373.53589" y1="207.22667" x2="497.53818" y2="153.59653"/>
<line fill="none" stroke="#CBBBA0" stroke-width="1.20742" stroke-miterlimit="10" x1="362.78409" y1="211.87675" x2="497.53818" y2="153.59653"/>
<line fill="none" stroke="#CBBBA0" stroke-width="1.20742" stroke-miterlimit="10" x1="359.42822" y1="211.97202" x2="345.16479" y2="149.10573"/>
<line fill="none" stroke="#CBBBA0" stroke-width="1.20742" stroke-miterlimit="10" x1="345.7977" y1="308.16553" x2="383.28387" y2="368.10144"/>
<line fill="none" stroke="#CBBBA0" stroke-width="1.20742" stroke-miterlimit="10" x1="377.91296" y1="309.46783" x2="392.78772" y2="409.37256"/>
<line fill="none" stroke="#CBBBA0" stroke-width="1.20742" stroke-miterlimit="10" x1="284.29562" y1="309.26276" x2="275.52109" y2="337.90375"/>
<line fill="#CBBBA0" x1="326.24289" y1="319.27737" x2="312.28848" y2="372.93185"/>
<line fill="none" stroke="#CBBBA0" stroke-width="1.20742" stroke-miterlimit="10" x1="328.97955" y1="308.75494" x2="312.28848" y2="372.93185"/>
<line fill="#CBBBA0" x1="320.78534" y1="208.59804" x2="289.45444" y2="153.59485"/>
<line fill="none" stroke="#CBBBA0" stroke-width="1.20742" stroke-miterlimit="10" x1="320.78534" y1="208.59804" x2="289.45444" y2="153.59485"/>
<line fill="none" stroke="#CBBBA0" stroke-width="1.20742" stroke-miterlimit="10" x1="226.33481" y1="310.38751" x2="187.49852" y2="334.27942"/>
<line fill="none" stroke="#CBBBA0" stroke-width="1.20742" stroke-miterlimit="10" x1="459.38589" y1="210.7444" x2="475.42715" y2="202.01685"/>
<line fill="none" stroke="#CBBBA0" stroke-width="1.20742" stroke-miterlimit="10" x1="437.54779" y1="309.04941" x2="448.6662" y2="324.76956"/>
<line fill="none" stroke="#CBBBA0" stroke-width="1.20742" stroke-miterlimit="10" x1="395.79691" y1="210.80769" x2="414.17798" y2="180.4115"/>
<line fill="#CBBBA0" x1="362.09848" y1="203.25156" x2="382.06232" y2="186.84447"/>
<line fill="none" stroke="#CBBBA0" stroke-width="1.20742" stroke-miterlimit="10" x1="352.47601" y1="211.15968" x2="382.06232" y2="186.84447"/>
<line fill="none" stroke="#CBBBA0" stroke-width="1.20742" stroke-miterlimit="10" x1="403.86981" y1="309.04941" x2="422.03967" y2="312.509"/>
<line fill="#CBBBA0" x1="372.08041" y1="318.87943" x2="367.85092" y2="350.13452"/>
<line fill="none" stroke="#CBBBA0" stroke-width="1.20742" stroke-miterlimit="10" x1="374.0397" y1="308.16553" x2="368.36041" y2="350.13452"/>
<line fill="none" stroke="#CBBBA0" stroke-width="1.20742" stroke-miterlimit="10" x1="325.73236" y1="309.26276" x2="309.78979" y2="337.90479"/>
<line fill="none" stroke="#CBBBA0" stroke-width="1.20742" stroke-miterlimit="10" x1="274.67401" y1="308.75494" x2="267.97354" y2="319.1925"/>
<line fill="none" stroke="#CBBBA0" stroke-width="1.20742" stroke-miterlimit="10" x1="267.97296" y1="211.65604" x2="260.87457" y2="208.59952"/>
<line fill="#CBBBA0" x1="335.03571" y1="203.37599" x2="321.49524" y2="177.10594"/>
<line fill="none" stroke="#CBBBA0" stroke-width="1.20742" stroke-miterlimit="10" x1="338.35608" y1="209.81795" x2="321.49524" y2="177.10594"/>
<line fill="none" stroke="#CBBBA0" stroke-width="1.20742" stroke-miterlimit="10" x1="335.98438" y1="211.42719" x2="343.1629" y2="187.976"/>
<path fill="#CBBBA0" d="M232.91011,159.74146c0,1.81459-1.47305,3.28764-3.28764,3.28764s-3.28766-1.47305-3.28766-3.28764
	c0-1.81438,1.47307-3.28745,3.28766-3.28745S232.91011,157.92708,232.91011,159.74146"/>
<path fill="#CBBBA0" d="M258.30493,138.00029c0,2.16307-1.75595,3.91911-3.9225,3.91911c-2.16295,0-3.91542-1.75604-3.91542-3.91911
	c0-2.16284,1.75247-3.9189,3.91542-3.9189C256.54898,134.08139,258.30493,135.83745,258.30493,138.00029"/>
<path fill="#CBBBA0" d="M261.78513,61.29995c0,1.92513-1.55939,3.48094-3.48083,3.48094c-1.92154,0-3.48431-1.55581-3.48431-3.48094
	c0-1.92134,1.56277-3.48073,3.48431-3.48073C260.22574,57.81922,261.78513,59.37861,261.78513,61.29995"/>
<path fill="#CBBBA0" d="M297.93054,55.64858c0,1.2006-0.97287,2.17001-2.17001,2.17001c-1.2005,0-2.16989-0.96941-2.16989-2.17001
	c0-1.19703,0.96939-2.1698,2.16989-2.1698C296.95767,53.47878,297.93054,54.45155,297.93054,55.64858"/>
<path fill="#CBBBA0" d="M301.6666,104.17964c0,2.83579-2.29761,5.13341-5.1333,5.13341c-2.83582,0-5.1333-2.29762-5.1333-5.13341
	c0-2.83558,2.29749-5.13319,5.1333-5.13319C299.36899,99.04646,301.6666,101.34406,301.6666,104.17964"/>
<path fill="#CBBBA0" d="M308.73795,117.4669c0,1.33514-1.07983,2.41489-2.41489,2.41489c-1.33502,0-2.41489-1.07974-2.41489-2.41489
	c0-1.33494,1.07986-2.41468,2.41489-2.41468C307.65811,115.05222,308.73795,116.13197,308.73795,117.4669"/>
<path fill="#CBBBA0" d="M343.16165,99.3486c0,1.66636-1.35242,3.01856-3.01855,3.01856c-1.66626,0-3.01855-1.3522-3.01855-3.01856
	c0-1.66615,1.35229-3.01855,3.01855-3.01855C341.80923,96.33005,343.16165,97.68246,343.16165,99.3486"/>
<path fill="#CBBBA0" d="M359.77057,83.04279c0,1.50085-1.21786,2.71851-2.71506,2.71851c-1.50412,0-2.71841-1.21766-2.71841-2.71851
	c0-1.50065,1.21429-2.71831,2.71841-2.71831C358.5527,80.32449,359.77057,81.54214,359.77057,83.04279"/>
<path fill="#CBBBA0" d="M411.77499,18.04694c0,1.74574-1.41791,3.16005-3.16354,3.16005c-1.74551,0-3.15994-1.41432-3.15994-3.16005
	c0-1.74553,1.41443-3.16342,3.15994-3.16342C410.35709,14.88352,411.77499,16.30142,411.77499,18.04694"/>
<path fill="#CBBBA0" d="M418.40997,70.96371c0,1.21092-0.97983,2.19064-2.19412,2.19064c-1.20743,0-2.19064-0.97972-2.19064-2.19064
	c0-1.21071,0.98322-2.19043,2.19064-2.19043C417.43015,68.77328,418.40997,69.75301,418.40997,70.96371"/>
<path fill="#CBBBA0" d="M397.6575,143.43605c0,1.02817-0.83148,1.86302-1.85944,1.86302c-1.03152,0-1.86292-0.83485-1.86292-1.86302
	c0-1.02794,0.83139-1.86279,1.86292-1.86279C396.82602,141.57326,397.6575,142.40811,397.6575,143.43605"/>
<path fill="#CBBBA0" d="M454.70679,99.3486c0,1.66636-1.35577,3.01856-3.02203,3.01856c-1.66623,0-3.01855-1.3522-3.01855-3.01856
	c0-1.66615,1.35233-3.01855,3.01855-3.01855C453.35101,96.33005,454.70679,97.68246,454.70679,99.3486"/>
<path fill="#CBBBA0" d="M460.06674,70.96371c0,1.83543-1.49033,3.32218-3.32217,3.32218c-1.83533,0-3.32217-1.48675-3.32217-3.32218
	c0-1.83522,1.48685-3.32197,3.32217-3.32197C458.57642,67.64175,460.06674,69.12849,460.06674,70.96371"/>
<path fill="#CBBBA0" d="M454.25809,166.52667c0,1.33516-1.07983,2.4149-2.41489,2.4149c-1.33502,0-2.41489-1.07974-2.41489-2.4149
	c0-1.33493,1.07986-2.41467,2.41489-2.41467C453.17825,164.112,454.25809,165.19174,454.25809,166.52667"/>
<path fill="#CBBBA0" d="M549.71075,57.81816c0,2.6703-2.16656,4.83315-4.83319,4.83315c-2.67017,0-4.83313-2.16285-4.83313-4.83315
	c0-2.6665,2.16296-4.82957,4.83313-4.82957C547.54419,52.9886,549.71075,55.15166,549.71075,57.81816"/>
<path fill="#CBBBA0" d="M547.2951,145.29907c0,1.33514-1.08331,2.41489-2.4184,2.41489c-1.33502,0-2.41473-1.07974-2.41473-2.41489
	c0-1.33493,1.07971-2.41467,2.41473-2.41467C546.21179,142.8844,547.2951,143.96414,547.2951,145.29907"/>
<path fill="#CBBBA0" d="M601.64917,83.04279c0,1.66635-1.35583,3.01855-3.02203,3.01855c-1.66626,0-3.01855-1.3522-3.01855-3.01855
	c0-1.66615,1.35229-3.01856,3.01855-3.01856C600.29333,80.02423,601.64917,81.37665,601.64917,83.04279"/>
<path fill="#CBBBA0" d="M520.31653,202.01811c0,1.78026-1.44214,3.22217-3.22217,3.22217
	c-1.77655,0-3.21857-1.44191-3.21857-3.22217c0-1.78006,1.44202-3.22197,3.21857-3.22197
	C518.87439,198.79614,520.31653,200.23805,520.31653,202.01811"/>
<path fill="#CBBBA0" d="M613.72687,342.52948c0,2.00095-1.62488,3.62582-3.62579,3.62582
	c-2.00085,0-3.62225-1.62488-3.62225-3.62582c0-2.00082,1.6214-3.62222,3.62225-3.62222
	C612.10199,338.90726,613.72687,340.52866,613.72687,342.52948"/>
<path fill="#CBBBA0" d="M529.17694,347.16187c0,1.64215-1.33173,2.97034-2.9704,2.97034c-1.64203,0-2.97369-1.32819-2.97369-2.97034
	c0-1.64203,1.33167-2.97021,2.97369-2.97021C527.84521,344.19165,529.17694,345.51984,529.17694,347.16187"/>
<path fill="#CBBBA0" d="M444.80563,363.80078c0,2.37354-1.92502,4.29843-4.29843,4.29843c-2.37698,0-4.30191-1.9249-4.30191-4.29843
	c0-2.37341,1.92493-4.30179,4.30191-4.30179C442.88062,359.49899,444.80563,361.42737,444.80563,363.80078"/>
<path fill="#CBBBA0" d="M355.22589,382.64319c0,2.3252-1.88715,4.21222-4.21222,4.21222c-2.3252,0-4.20874-1.88702-4.20874-4.21222
	c0-2.32507,1.88354-4.20862,4.20874-4.20862C353.33875,378.43457,355.22589,380.31812,355.22589,382.64319"/>
<path fill="#CBBBA0" d="M304.8436,412.1871c0,1.4938-1.21094,2.70471-2.70474,2.70471c-1.49368,0-2.70462-1.21091-2.70462-2.70471
	c0-1.49371,1.21094-2.70462,2.70462-2.70462C303.63266,409.48248,304.8436,410.69339,304.8436,412.1871"/>
<path fill="#CBBBA0" d="M205.46674,379.50009c0,2.00092-1.62488,3.62234-3.62576,3.62234c-2.00087,0-3.6257-1.62143-3.6257-3.62234
	c0-2.00082,1.62483-3.62222,3.6257-3.62222C203.84186,375.87787,205.46674,377.49927,205.46674,379.50009"/>
<path fill="#CBBBA0" d="M242.90924,351.19089c0,2.66672-2.16306,4.82977-4.82973,4.82977
	c-2.67014,0-4.83315-2.16306-4.83315-4.82977c0-2.67007,2.16301-4.83304,4.83315-4.83304
	C240.74619,346.35785,242.90924,348.52081,242.90924,351.19089"/>
<path fill="#CBBBA0" d="M158.39967,170.61319c0,2.85306-2.31482,5.16792-5.16777,5.16792
	c-2.85301,0-5.16435-2.31487-5.16435-5.16792c0-2.85286,2.31134-5.16772,5.16435-5.16772
	C156.08485,165.44547,158.39967,167.76033,158.39967,170.61319"/>
<path fill="#CBBBA0" d="M158.34894,337.90396c0,2.55637-2.07336,4.62616-4.62965,4.62616c-2.5528,0-4.62616-2.06979-4.62616-4.62616
	c0-2.55618,2.07336-4.62595,4.62616-4.62595C156.27557,333.27802,158.34894,335.34778,158.34894,337.90396"/>
<path fill="#CBBBA0" d="M188.85814,456.87936c0,2.83582-2.30103,5.1333-5.1333,5.1333c-2.83916,0-5.13672-2.29749-5.13672-5.1333
	c0-2.83566,2.29756-5.13318,5.13672-5.13318C186.55711,451.74619,188.85814,454.0437,188.85814,456.87936"/>
<path fill="#CBBBA0" d="M265.54507,452.04834c0,1.4938-1.21442,2.70471-2.70474,2.70471c-1.49716,0-2.70462-1.21091-2.70462-2.70471
	c0-1.49371,1.20746-2.70462,2.70462-2.70462C264.33066,449.34372,265.54507,450.55463,265.54507,452.04834"/>
<path fill="#CBBBA0" d="M337.12454,438.76108c0,1.76291-1.42822,3.1911-3.19113,3.1911c-1.76627,0-3.19446-1.42819-3.19446-3.1911
	c0-1.76279,1.42819-3.19101,3.19446-3.19101C335.69632,435.57007,337.12454,436.99829,337.12454,438.76108"/>
<path fill="#CBBBA0" d="M347.0899,413.62564c0,2.16653-1.7594,3.92584-3.92932,3.92584c-2.16653,0-3.92236-1.75931-3.92236-3.92584
	c0-2.16992,1.75583-3.92575,3.92236-3.92575C345.33051,409.69989,347.0899,411.45572,347.0899,413.62564"/>
<path fill="#CBBBA0" d="M421.73175,449.34299c0,1.83533-1.48697,3.32217-3.32217,3.32217c-1.83533,0-3.3222-1.48685-3.3222-3.32217
	c0-1.83524,1.48688-3.32208,3.3222-3.32208C420.24478,446.0209,421.73175,447.50775,421.73175,449.34299"/>
<path fill="#CBBBA0" d="M480.60364,489.49216c0,2.00095-1.6214,3.62234-3.62234,3.62234c-2.00082,0-3.6257-1.6214-3.6257-3.62234
	c0-2.00082,1.62488-3.6257,3.6257-3.6257C478.98224,485.86646,480.60364,487.49133,480.60364,489.49216"/>
<path fill="#CBBBA0" d="M555.51831,381.08527c0,3.20837-2.6012,5.80951-5.80951,5.80951c-3.20825,0-5.80939-2.60114-5.80939-5.80951
	c0-3.20825,2.60114-5.80939,5.80939-5.80939C552.91711,375.27588,555.51831,377.87701,555.51831,381.08527"/>
<path fill="#CBBBA0" d="M524.64563,382.64319c0,2.16653-1.75946,3.92584-3.9259,3.92584c-2.16998,0-3.92249-1.75931-3.92249-3.92584
	c0-2.16641,1.7525-3.92575,3.92249-3.92575C522.88617,378.71744,524.64563,380.47678,524.64563,382.64319"/>
<path fill="#CBBBA0" d="M558.81671,185.65662c0,1.66635-1.35242,3.01855-3.01855,3.01855c-1.66626,0-3.01855-1.3522-3.01855-3.01855
	c0-1.66615,1.35229-3.01857,3.01855-3.01857C557.46429,182.63805,558.81671,183.99046,558.81671,185.65662"/>
<path fill="#CBBBA0" d="M271.69662,178.86874c0,2.05609-1.66626,3.72244-3.72235,3.72244
	c-2.05957,0-3.72235-1.66635-3.72235-3.72244c0-2.05589,1.66278-3.72224,3.72235-3.72224
	C270.03036,175.1465,271.69662,176.81285,271.69662,178.86874"/>
<path fill="#CBBBA0" d="M97.28964,311.28766c0,1.66663-1.35078,3.0174-3.01738,3.0174c-1.66941,0-3.02018-1.35077-3.02018-3.0174
	c0-1.66644,1.35077-3.01721,3.02018-3.01721C95.93887,308.27045,97.28964,309.62122,97.28964,311.28766"/>
<path fill="#CBBBA0" d="M191.12184,334.28067c0,2.00095-1.62488,3.62244-3.62575,3.62244
	c-2.00089,0-3.62228-1.62149-3.62228-3.62244c0-2.0007,1.6214-3.62558,3.62228-3.62558
	C189.49696,330.65509,191.12184,332.27997,191.12184,334.28067"/>
<path fill="#CBBBA0" d="M279.29691,337.90396c0,2.08368-1.68698,3.7775-3.7775,3.7775c-2.08368,0-3.77069-1.69382-3.77069-3.7775
	c0-2.08347,1.68701-3.7774,3.77069-3.7774C277.60992,334.12656,279.29691,335.8205,279.29691,337.90396"/>
<path fill="#CBBBA0" d="M315.30737,372.93237c0,1.66626-1.35242,3.01855-3.01855,3.01855
	c-1.66626,0-3.01855-1.35229-3.01855-3.01855c0-1.66614,1.35229-3.01855,3.01855-3.01855
	C313.95496,369.91382,315.30737,371.26624,315.30737,372.93237"/>
<path fill="#CBBBA0" d="M386.3815,368.09964c0,1.71109-1.38336,3.09448-3.09448,3.09448c-1.71109,0-3.09445-1.38339-3.09445-3.09448
	c0-1.70761,1.38336-3.09436,3.09445-3.09436C384.99814,365.00528,386.3815,366.39203,386.3815,368.09964"/>
<path fill="#CBBBA0" d="M395.60245,409.37067c0,1.55594-1.25922,2.81506-2.81503,2.81506
	c-1.55594,0-2.81854-1.25912-2.81854-2.81506c0-1.55582,1.2626-2.81494,2.81854-2.81494
	C394.34323,406.55573,395.60245,407.81485,395.60245,409.37067"/>
<path fill="#CBBBA0" d="M433.21988,397.08914c0,2.58734-2.09409,4.68146-4.67795,4.68146s-4.68134-2.09412-4.68134-4.68146
	s2.09747-4.68134,4.68134-4.68134S433.21988,394.5018,433.21988,397.08914"/>
<path fill="#CBBBA0" d="M452.06219,324.76874c0,1.87332-1.51791,3.39459-3.39462,3.39459s-3.39807-1.52127-3.39807-3.39459
	c0-1.8765,1.52136-3.39801,3.39807-3.39801S452.06219,322.89224,452.06219,324.76874"/>
<path fill="#CBBBA0" d="M476.98203,202.01811c0,0.85907-0.69693,1.55602-1.55591,1.55602s-1.55582-0.69695-1.55582-1.55602
	c0-0.86246,0.69684-1.55919,1.55582-1.55919S476.98203,201.15565,476.98203,202.01811"/>
<path fill="#CBBBA0" d="M349.87939,153.59506c0,2.60123-2.10791,4.71249-4.71249,4.71249
	c-2.60114,0-4.70892-2.11127-4.70892-4.71249c0-2.60103,2.10779-4.7123,4.70892-4.7123
	C347.77148,148.88277,349.87939,150.99403,349.87939,153.59506"/>
<path fill="#CBBBA0" d="M500.8273,153.59506c0,1.81458-1.47308,3.28764-3.28766,3.28764s-3.28427-1.47307-3.28427-3.28764
	c0-1.81439,1.4697-3.28745,3.28427-3.28745S500.8273,151.78067,500.8273,153.59506"/>
<path fill="#CBBBA0" d="M292.31424,153.59506c0,1.58002-1.27988,2.86-2.85992,2.86c-1.58002,0-2.85989-1.27998-2.85989-2.86
	c0-1.57982,1.27988-2.8598,2.85989-2.8598C291.03436,150.73526,292.31424,152.01524,292.31424,153.59506"/>
<path fill="#CBBBA0" d="M197.46222,57.81816c0,3.50516-2.83574,6.34074-6.34074,6.34074c-3.50494,0-6.34068-2.83558-6.34068-6.34074
	c0-3.50137,2.83574-6.34053,6.34068-6.34053C194.62648,51.47763,197.46222,54.3168,197.46222,57.81816"/>
<path fill="#CBBBA0" d="M196.85918,317.18506c0,2.58734-2.09404,4.67798-4.6779,4.67798c-2.58392,0-4.6814-2.09064-4.6814-4.67798
	c0-2.58374,2.09747-4.67776,4.6814-4.67776C194.76514,312.50729,196.85918,314.60132,196.85918,317.18506"/>
<path fill="#CBBBA0" d="M264.2514,208.59804c0,1.86302-1.51108,3.37398-3.37735,3.37398c-1.86292,0-3.37051-1.51096-3.37051-3.37398
	c0-1.86281,1.5076-3.37376,3.37051-3.37376C262.74033,205.22427,264.2514,206.73523,264.2514,208.59804"/>
<path fill="#CBBBA0" d="M323.53448,177.10532c0,1.12817-0.91425,2.03883-2.03882,2.03883
	c-1.12469,0-2.03885-0.91066-2.03885-2.03883c0-1.12459,0.91415-2.03862,2.03885-2.03862
	C322.62024,175.0667,323.53448,175.98073,323.53448,177.10532"/>
<path fill="#CBBBA0" d="M344.52258,187.97664c0,0.74873-0.61063,1.35936-1.36273,1.35936
	c-0.74515,0-1.35577-0.61063-1.35577-1.35936c0-0.75191,0.61063-1.35916,1.35577-1.35916
	C343.91196,186.61748,344.52258,187.22473,344.52258,187.97664"/>
<path fill="#CBBBA0" d="M384.52859,186.84467c0,1.35938-1.10397,2.46332-2.46671,2.46332c-1.35913,0-2.4631-1.10394-2.4631-2.46332
	c0-1.36252,1.10397-2.4631,2.4631-2.4631C383.42462,184.38156,384.52859,185.48215,384.52859,186.84467"/>
<path fill="#CBBBA0" d="M419.61258,180.4115c0,3.0015-2.43561,5.43344-5.43344,5.43344c-3.00128,0-5.43683-2.43195-5.43683-5.43344
	c0-3.0013,2.43555-5.43681,5.43683-5.43681C417.17697,174.97469,419.61258,177.4102,419.61258,180.4115"/>
<path fill="#CBBBA0" d="M427.18625,312.91162c0,2.61954-2.12363,4.74298-4.74298,4.74298
	c-2.61948,0-4.74622-2.12344-4.74622-4.74298c0-2.61938,2.12674-4.74609,4.74622-4.74609
	C425.06262,308.16553,427.18625,310.29224,427.18625,312.91162"/>
<path fill="#CBBBA0" d="M370.72293,350.13315c0,1.58353-1.28336,2.87024-2.87021,2.87024c-1.5835,0-2.86685-1.28671-2.86685-2.87024
	c0-1.58337,1.28336-2.87012,2.86685-2.87012C369.43958,347.26303,370.72293,348.54977,370.72293,350.13315"/>
<path fill="#CBBBA0" d="M313.60944,337.90396c0,2.10788-1.71112,3.819-3.819,3.819c-2.11127,0-3.82236-1.71112-3.82236-3.819
	c0-2.11127,1.71109-3.81888,3.82236-3.81888C311.89832,334.08508,313.60944,335.79269,313.60944,337.90396"/>
<path fill="#CBBBA0" d="M273.54953,319.19147c0,3.08066-2.49774,5.57831-5.57495,5.57831
	c-3.08405,0-5.57822-2.49765-5.57822-5.57831c0-3.08047,2.49417-5.57809,5.57822-5.57809
	C271.05179,313.61337,273.54953,316.11099,273.54953,319.19147"/>
<line fill="none" stroke="#CBBBA0" stroke-width="3.44978" stroke-linecap="round" stroke-miterlimit="10" x1="29.40338" y1="211.15968" x2="728.9292" y2="211.15968"/>
</svg>
