<?xml version="1.0" encoding="utf-8"?>
<!-- Generator: Adobe Illustrator 22.1.0, SVG Export Plug-In . SVG Version: 6.00 Build 0)  -->
<svg version="1.2" baseProfile="tiny" id="Warstwa_1"
	 xmlns="http://www.w3.org/2000/svg" xmlns:xlink="http://www.w3.org/1999/xlink" x="0px" y="0px" viewBox="0 0 48 48"
	 xml:space="preserve">
<line fill="#CBBBA0" x1="26.25776" y1="23.80857" x2="33.98228" y2="9.63498"/>
<line fill="none" stroke="#CBBBA0" stroke-width="0.12207" stroke-miterlimit="10" x1="26.25776" y1="23.80857" x2="33.98228" y2="9.63498"/>
<line fill="none" stroke="#CBBBA0" stroke-width="0.12207" stroke-miterlimit="10" x1="27.53411" y1="23.89069" x2="33.50116" y2="19.26459"/>
<line fill="#CBBBA0" x1="24.9955" y1="23.20999" x2="23.90385" y2="10.85628"/>
<line fill="none" stroke="#CBBBA0" stroke-width="0.12005" stroke-miterlimit="10" x1="25.04321" y1="23.74995" x2="23.90385" y2="10.85628"/>
<line fill="none" stroke="#CBBBA0" stroke-width="0.12207" stroke-miterlimit="10" x1="22.936" y1="23.86851" x2="33.47095" y2="12.50474"/>
<line fill="none" stroke="#CBBBA0" stroke-width="0.12207" stroke-miterlimit="10" x1="23.8024" y1="22.93394" x2="33.47095" y2="12.50474"/>
<line fill="#CBBBA0" x1="22.19413" y1="22.88436" x2="18.7748" y2="14.33641"/>
<line fill="none" stroke="#CBBBA0" stroke-width="0.12207" stroke-miterlimit="10" x1="22.49947" y1="23.68376" x2="18.7748" y2="14.33641"/>
<line fill="none" stroke="#CBBBA0" stroke-width="0.12207" stroke-miterlimit="10" x1="20.69339" y1="23.80857" x2="11.02052" y2="18.61018"/>
<line fill="none" stroke="#CBBBA0" stroke-width="0.12207" stroke-miterlimit="10" x1="17.80561" y1="23.85875" x2="13.92035" y2="8.65802"/>
<line fill="#CBBBA0" x1="20.23708" y1="23.54959" x2="17.70711" y2="8.08659"/>
<line fill="none" stroke="#CBBBA0" stroke-width="0.12207" stroke-miterlimit="10" x1="20.23708" y1="23.54959" x2="17.70711" y2="8.08659"/>
<line fill="none" stroke="#CBBBA0" stroke-width="0.12207" stroke-miterlimit="10" x1="11.43134" y1="23.80857" x2="3.29758" y2="19.70939"/>
<line fill="none" stroke="#CBBBA0" stroke-width="0.12207" stroke-miterlimit="10" x1="32.29996" y1="23.7065" x2="42.89237" y2="8.30583"/>
<line fill="none" stroke="#CBBBA0" stroke-width="0.12207" stroke-miterlimit="10" x1="39.23623" y1="23.80857" x2="43.99665" y2="21.23024"/>
<line fill="none" stroke="#CBBBA0" stroke-width="0.12207" stroke-miterlimit="10" x1="20.37861" y1="23.78977" x2="22.19425" y2="12.50452"/>
<line fill="none" stroke="#CBBBA0" stroke-width="0.11959" stroke-miterlimit="10" x1="31.13096" y1="23.74995" x2="47.97684" y2="11.11819"/>
<line fill="none" stroke="#CBBBA0" stroke-width="0.12207" stroke-miterlimit="10" x1="33.509" y1="23.8314" x2="42.89248" y2="17.15001"/>
<line fill="none" stroke="#CBBBA0" stroke-width="0.12207" stroke-miterlimit="10" x1="26.7196" y1="23.80857" x2="27.77184" y2="16.96179"/>
<line fill="none" stroke="#CBBBA0" stroke-width="0.12207" stroke-miterlimit="10" x1="18.50325" y1="23.86851" x2="17.78523" y2="12.99311"/>
<line fill="none" stroke="#CBBBA0" stroke-width="0.12207" stroke-miterlimit="10" x1="28.04511" y1="23.80857" x2="29.11637" y2="4.32296"/>
<line fill="#CBBBA0" x1="19.53818" y1="23.96645" x2="13.52402" y2="16.41214"/>
<line fill="none" stroke="#CBBBA0" stroke-width="0.12207" stroke-miterlimit="10" x1="19.41249" y1="23.80857" x2="13.52402" y2="16.41214"/>
<line fill="none" stroke="#CBBBA0" stroke-width="0.11982" stroke-miterlimit="10" x1="24.80094" y1="23.66641" x2="29.88506" y2="9.63515"/>
<line fill="none" stroke="#CBBBA0" stroke-width="0.12207" stroke-miterlimit="10" x1="16.39338" y1="23.86851" x2="14.89784" y2="20.54408"/>
<line fill="#CBBBA0" x1="19.9898" y1="23.68274" x2="7.12827" y2="8.30589"/>
<line fill="none" stroke="#CBBBA0" stroke-width="0.12207" stroke-miterlimit="10" x1="19.9898" y1="23.68274" x2="7.12827" y2="8.30589"/>
<line fill="#CBBBA0" x1="25.5701" y1="23.41094" x2="38.10657" y2="17.989"/>
<line fill="none" stroke="#CBBBA0" stroke-width="0.12207" stroke-miterlimit="10" x1="24.4831" y1="23.88106" x2="38.10657" y2="17.989"/>
<line fill="none" stroke="#CBBBA0" stroke-width="0.12207" stroke-miterlimit="10" x1="24.14383" y1="23.89069" x2="22.70181" y2="17.53499"/>
<line fill="#CBBBA0" x1="20.23708" y1="23.54959" x2="17.06957" y2="17.98883"/>
<line fill="none" stroke="#CBBBA0" stroke-width="0.12207" stroke-miterlimit="10" x1="20.23708" y1="23.54959" x2="17.06957" y2="17.98883"/>
<line fill="none" stroke="#CBBBA0" stroke-width="0.12207" stroke-miterlimit="10" x1="27.82066" y1="23.77298" x2="29.67896" y2="20.69996"/>
<line fill="#CBBBA0" x1="24.41379" y1="23.00906" x2="26.43211" y2="21.35033"/>
<line fill="none" stroke="#CBBBA0" stroke-width="0.12207" stroke-miterlimit="10" x1="23.44097" y1="23.80857" x2="26.43211" y2="21.35033"/>
<line fill="#CBBBA0" x1="21.67777" y1="23.02164" x2="20.30885" y2="20.36578"/>
<line fill="none" stroke="#CBBBA0" stroke-width="0.12207" stroke-miterlimit="10" x1="22.01346" y1="23.67292" x2="20.30885" y2="20.36578"/>
<line fill="none" stroke="#CBBBA0" stroke-width="0.12207" stroke-miterlimit="10" x1="21.77368" y1="23.83561" x2="22.49943" y2="21.46473"/>
<path fill="#CBBBA0" d="M11.35301,18.61025c0,0.18345-0.14892,0.33238-0.33238,0.33238s-0.33238-0.14892-0.33238-0.33238
	c0-0.18343,0.14892-0.33236,0.33238-0.33236S11.35301,18.42682,11.35301,18.61025"/>
<path fill="#CBBBA0" d="M13.92039,16.41224c0,0.21868-0.17752,0.39622-0.39656,0.39622c-0.21867,0-0.39584-0.17753-0.39584-0.39622
	c0-0.21866,0.17717-0.3962,0.39584-0.3962C13.74287,16.01605,13.92039,16.19358,13.92039,16.41224"/>
<path fill="#CBBBA0" d="M14.27224,8.65794c0,0.19463-0.15765,0.35192-0.35191,0.35192c-0.19427,0-0.35226-0.15729-0.35226-0.35192
	c0-0.19424,0.15799-0.3519,0.35226-0.3519C14.11458,8.30604,14.27224,8.46369,14.27224,8.65794"/>
<path fill="#CBBBA0" d="M17.92649,8.08659c0,0.12138-0.09836,0.21939-0.21939,0.21939c-0.12137,0-0.21938-0.09801-0.21938-0.21939
	c0-0.12102,0.09801-0.21936,0.21938-0.21936C17.82813,7.86723,17.92649,7.96558,17.92649,8.08659"/>
<path fill="#CBBBA0" d="M18.3042,12.99302c0,0.2867-0.23229,0.51898-0.51897,0.51898c-0.2867,0-0.51897-0.23228-0.51897-0.51898
	c0-0.28667,0.23227-0.51896,0.51897-0.51896C18.07191,12.47406,18.3042,12.70635,18.3042,12.99302"/>
<path fill="#CBBBA0" d="M19.01911,14.33635c0,0.13498-0.10917,0.24414-0.24414,0.24414s-0.24414-0.10916-0.24414-0.24414
	c0-0.13496,0.10917-0.24412,0.24414-0.24412S19.01911,14.20139,19.01911,14.33635"/>
<path fill="#CBBBA0" d="M22.4993,12.50461c0,0.16847-0.13673,0.30517-0.30517,0.30517c-0.16846,0-0.30517-0.13671-0.30517-0.30517
	c0-0.16844,0.13672-0.30517,0.30517-0.30517C22.36257,12.19944,22.4993,12.33616,22.4993,12.50461"/>
<path fill="#CBBBA0" d="M24.17844,10.85611c0,0.15173-0.12313,0.27484-0.27449,0.27484c-0.15207,0-0.27483-0.1231-0.27483-0.27484
	c0-0.15171,0.12276-0.27482,0.27483-0.27482C24.05531,10.5813,24.17844,10.7044,24.17844,10.85611"/>
<path fill="#CBBBA0" d="M30.10681,9.63493c0,0.12242-0.09906,0.22147-0.22182,0.22147c-0.12207,0-0.22147-0.09905-0.22147-0.22147
	c0-0.1224,0.0994-0.22145,0.22147-0.22145C30.00775,9.41348,30.10681,9.51253,30.10681,9.63493"/>
<path fill="#CBBBA0" d="M28.00876,16.96179c0,0.10394-0.08406,0.18835-0.18799,0.18835c-0.10429,0-0.18834-0.0844-0.18834-0.18835
	c0-0.10392,0.08405-0.18833,0.18834-0.18833C27.9247,16.77347,28.00876,16.85787,28.00876,16.96179"/>
<path fill="#CBBBA0" d="M33.77637,12.50461c0,0.16847-0.13707,0.30517-0.30552,0.30517c-0.16845,0-0.30517-0.13671-0.30517-0.30517
	c0-0.16844,0.13672-0.30517,0.30517-0.30517C33.6393,12.19944,33.77637,12.33616,33.77637,12.50461"/>
<path fill="#CBBBA0" d="M34.31825,9.63493c0,0.18556-0.15067,0.33587-0.33587,0.33587c-0.18555,0-0.33587-0.15031-0.33587-0.33587
	c0-0.18554,0.15032-0.33585,0.33587-0.33585C34.16758,9.29909,34.31825,9.4494,34.31825,9.63493"/>
<path fill="#CBBBA0" d="M33.73101,19.29623c0,0.13498-0.10917,0.24414-0.24414,0.24414c-0.13497,0-0.24414-0.10916-0.24414-0.24414
	c0-0.13496,0.10917-0.24412,0.24414-0.24412C33.62183,19.0521,33.73101,19.16127,33.73101,19.29623"/>
<path fill="#CBBBA0" d="M43.38115,8.30593c0,0.26996-0.21904,0.48863-0.48862,0.48863c-0.26995,0-0.48862-0.21866-0.48862-0.48863
	c0-0.26958,0.21867-0.48826,0.48862-0.48826C43.16211,7.81767,43.38115,8.03636,43.38115,8.30593"/>
<path fill="#CBBBA0" d="M43.13693,17.15014c0,0.13498-0.10952,0.24414-0.2445,0.24414s-0.24413-0.10916-0.24413-0.24414
	c0-0.13496,0.10916-0.24412,0.24413-0.24412S43.13693,17.01518,43.13693,17.15014"/>
<path fill="#CBBBA0" d="M3.8201,19.70937c0,0.28844-0.23403,0.52247-0.52246,0.52247c-0.28844,0-0.52211-0.23403-0.52211-0.52247
	c0-0.28842,0.23367-0.52245,0.52211-0.52245C3.58608,19.18692,3.8201,19.42095,3.8201,19.70937"/>
<path fill="#CBBBA0" d="M44.30175,21.23024c0,0.16847-0.13673,0.30517-0.30517,0.30517c-0.16846,0-0.30518-0.13671-0.30518-0.30517
	c0-0.16845,0.13672-0.30517,0.30518-0.30517C44.16502,20.92507,44.30175,21.06179,44.30175,21.23024"/>
<path fill="#CBBBA0" d="M15.27427,20.54399c0,0.20787-0.16846,0.37634-0.37632,0.37634c-0.20822,0-0.37632-0.16847-0.37632-0.37634
	c0-0.20785,0.1681-0.37631,0.37632-0.37631C15.10582,20.16768,15.27427,20.33615,15.27427,20.54399"/>
<path fill="#CBBBA0" d="M23.17845,17.98886c0,0.26298-0.21311,0.47643-0.47643,0.47643c-0.26297,0-0.47607-0.21345-0.47607-0.47643
	c0-0.26296,0.2131-0.47641,0.47607-0.47641C22.96535,17.51245,23.17845,17.72589,23.17845,17.98886"/>
<path fill="#CBBBA0" d="M38.43909,17.98886c0,0.18345-0.14892,0.33238-0.33237,0.33238s-0.33204-0.14893-0.33204-0.33238
	c0-0.18343,0.14859-0.33236,0.33204-0.33236S38.43909,17.80542,38.43909,17.98886"/>
<path fill="#CBBBA0" d="M17.35869,17.98886c0,0.15974-0.12939,0.28914-0.28913,0.28914s-0.28913-0.1294-0.28913-0.28914
	c0-0.15972,0.12939-0.28912,0.28913-0.28912S17.35869,17.82914,17.35869,17.98886"/>
<path fill="#CBBBA0" d="M7.76927,8.30593c0,0.35437-0.28669,0.64104-0.64104,0.64104c-0.35435,0-0.64104-0.28667-0.64104-0.64104
	c0-0.35398,0.28669-0.64102,0.64104-0.64102C7.48258,7.66492,7.76927,7.95195,7.76927,8.30593"/>
<path fill="#CBBBA0" d="M20.51502,20.36571c0,0.11406-0.09243,0.20612-0.20612,0.20612c-0.1137,0-0.20612-0.09207-0.20612-0.20612
	c0-0.1137,0.09242-0.2061,0.20612-0.2061C20.42259,20.15961,20.51502,20.25202,20.51502,20.36571"/>
<path fill="#CBBBA0" d="M22.63689,21.46479c0,0.0757-0.06173,0.13743-0.13777,0.13743c-0.07533,0-0.13707-0.06173-0.13707-0.13743
	c0-0.07602,0.06173-0.13741,0.13707-0.13741C22.57516,21.32738,22.63689,21.38877,22.63689,21.46479"/>
<path fill="#CBBBA0" d="M26.68144,21.35035c0,0.13743-0.11161,0.24904-0.24938,0.24904c-0.13741,0-0.24902-0.11161-0.24902-0.24904
	c0-0.13775,0.11161-0.24902,0.24902-0.24902C26.56983,21.10133,26.68144,21.2126,26.68144,21.35035"/>
<path fill="#CBBBA0" d="M30.22839,20.69996c0,0.30345-0.24624,0.54931-0.54931,0.54931c-0.30343,0-0.54966-0.24586-0.54966-0.54931
	c0-0.30343,0.24623-0.54965,0.54966-0.54965C29.98215,20.15031,30.22839,20.39654,30.22839,20.69996"/>
<path fill="#CBBBA0" d="M47.79803,23.92927H0.2276c-0.09875,0-0.17881-0.08006-0.17881-0.17881l0,0
	c0-0.09875,0.08006-0.17881,0.17881-0.17881h47.57043c0.09875,0,0.17881,0.08006,0.17881,0.17881l0,0
	C47.97684,23.84921,47.89678,23.92927,47.79803,23.92927z"/>
<path fill="#CBBBA0" d="M47.79321,26.48396H0.23242c-0.10141,0-0.18363-0.08221-0.18363-0.18363l0,0
	c0-0.10142,0.08221-0.18363,0.18363-0.18363h47.56079c0.10141,0,0.18363,0.08221,0.18363,0.18363l0,0
	C47.97684,26.40174,47.89462,26.48396,47.79321,26.48396z"/>
<path fill="#CBBBA0" d="M29.45224,4.31098c0,0.18556-0.15067,0.33587-0.33587,0.33587c-0.18555,0-0.33587-0.15031-0.33587-0.33587
	c0-0.18554,0.15032-0.33585,0.33587-0.33585C29.30157,3.97513,29.45224,4.12544,29.45224,4.31098"/>
<line fill="none" stroke="#CBBBA0" stroke-width="0.12402" stroke-miterlimit="10" x1="26.31142" y1="26.25047" x2="30.43826" y2="40.61767"/>
<line fill="none" stroke="#CBBBA0" stroke-width="0.12402" stroke-miterlimit="10" x1="28.11551" y1="26.36959" x2="36.4543" y2="44.74153"/>
<line fill="none" stroke="#CBBBA0" stroke-width="0.12402" stroke-miterlimit="10" x1="28.94471" y1="26.22864" x2="31.47868" y2="35.25046"/>
<line fill="#CBBBA0" x1="21.76133" y1="27.50628" x2="22.70919" y2="36.94878"/>
<line fill="none" stroke="#CBBBA0" stroke-width="0.12402" stroke-miterlimit="10" x1="21.62792" y1="26.17724" x2="22.70919" y2="36.94878"/>
<line fill="none" stroke="#CBBBA0" stroke-width="0.12402" stroke-miterlimit="10" x1="23.09745" y1="26.1167" x2="21.87447" y2="39.53063"/>
<line fill="#CBBBA0" x1="20.41076" y1="27.00663" x2="6.33277" y2="41.39183"/>
<line fill="none" stroke="#CBBBA0" stroke-width="0.12402" stroke-miterlimit="10" x1="21.17138" y1="26.2294" x2="6.33277" y2="41.39183"/>
<line fill="none" stroke="#CBBBA0" stroke-width="0.12402" stroke-miterlimit="10" x1="14.25737" y1="26.35219" x2="11.9157" y2="30.53587"/>
<line fill="none" stroke="#CBBBA0" stroke-width="0.12402" stroke-miterlimit="10" x1="18.88804" y1="26.2579" x2="14.45877" y2="40.89566"/>
<line fill="none" stroke="#CBBBA0" stroke-width="0.12402" stroke-miterlimit="10" x1="14.8319" y1="26.1649" x2="3.25089" y2="29.17117"/>
<line fill="none" stroke="#CBBBA0" stroke-width="0.12402" stroke-miterlimit="10" x1="9.28206" y1="26.19739" x2="7.20122" y2="27.04318"/>
<line fill="none" stroke="#CBBBA0" stroke-width="0.10152" stroke-miterlimit="10" x1="38.27161" y1="26.24077" x2="47.97684" y2="29.02864"/>
<line fill="none" stroke="#CBBBA0" stroke-width="0.12402" stroke-miterlimit="10" x1="32.80555" y1="26.24077" x2="40.94703" y2="33.76679"/>
<line fill="#CBBBA0" x1="21.47031" y1="27.42825" x2="8.19349" y2="33.44391"/>
<line fill="none" stroke="#CBBBA0" stroke-width="0.12402" stroke-miterlimit="10" x1="24.06456" y1="26.25281" x2="8.19349" y2="33.44391"/>
<line fill="none" stroke="#CBBBA0" stroke-width="0.12402" stroke-miterlimit="10" x1="25.16872" y1="26.20749" x2="23.5157" y2="33.76654"/>
<line fill="none" stroke="#CBBBA0" stroke-width="0.12402" stroke-miterlimit="10" x1="35.95094" y1="26.1167" x2="41.51047" y2="30.122"/>
<line fill="none" stroke="#CBBBA0" stroke-width="0.12402" stroke-miterlimit="10" x1="32.09278" y1="26.2294" x2="43.92466" y2="33.60657"/>
<line fill="#CBBBA0" x1="22.4721" y1="27.60735" x2="18.49532" y2="36.80109"/>
<line fill="none" stroke="#CBBBA0" stroke-width="0.12402" stroke-miterlimit="10" x1="23.07369" y1="26.21655" x2="18.49532" y2="36.80109"/>
<line fill="none" stroke="#CBBBA0" stroke-width="0.12402" stroke-miterlimit="10" x1="29.99583" y1="26.25281" x2="32.7078" y2="31.83128"/>
<line fill="none" stroke="#CBBBA0" stroke-width="0.12402" stroke-miterlimit="10" x1="22.97988" y1="26.1167" x2="26.83024" y2="32.27297"/>
<line fill="none" stroke="#CBBBA0" stroke-width="0.12402" stroke-miterlimit="10" x1="26.27857" y1="26.25047" x2="27.80642" y2="36.5121"/>
<line fill="none" stroke="#CBBBA0" stroke-width="0.12402" stroke-miterlimit="10" x1="16.66275" y1="26.2294" x2="15.76148" y2="29.17124"/>
<line fill="#CBBBA0" x1="20.97133" y1="27.25805" x2="19.53801" y2="32.76912"/>
<line fill="none" stroke="#CBBBA0" stroke-width="0.12402" stroke-miterlimit="10" x1="21.25242" y1="26.17724" x2="19.53801" y2="32.76912"/>
<line fill="none" stroke="#CBBBA0" stroke-width="0.12402" stroke-miterlimit="10" x1="10.70935" y1="26.34493" x2="6.72031" y2="28.79897"/>
<line fill="none" stroke="#CBBBA0" stroke-width="0.12402" stroke-miterlimit="10" x1="32.40392" y1="26.20749" x2="33.54593" y2="27.82217"/>
<line fill="#CBBBA0" x1="25.67949" y1="27.21717" x2="25.24506" y2="30.42751"/>
<line fill="none" stroke="#CBBBA0" stroke-width="0.12402" stroke-miterlimit="10" x1="25.88074" y1="26.1167" x2="25.29739" y2="30.42751"/>
<line fill="none" stroke="#CBBBA0" stroke-width="0.12402" stroke-miterlimit="10" x1="20.91889" y1="26.2294" x2="19.28136" y2="29.17135"/>
<line fill="none" stroke="#CBBBA0" stroke-width="0.12402" stroke-miterlimit="10" x1="15.67447" y1="26.17724" x2="14.98624" y2="27.24933"/>
<path fill="#CBBBA0" d="M41.81553,30.12218c0,0.16867-0.13678,0.3051-0.3051,0.3051c-0.16866,0-0.30544-0.13643-0.30544-0.3051
	c0-0.16866,0.13678-0.30508,0.30544-0.30508C41.67874,29.81709,41.81553,29.95352,41.81553,30.12218"/>
<path fill="#CBBBA0" d="M33.1494,31.83123c0,0.24379-0.19773,0.44151-0.44151,0.44151c-0.24415,0-0.44187-0.19772-0.44187-0.44151
	c0-0.24378,0.19772-0.44186,0.44187-0.44186C32.95167,31.38938,33.1494,31.58745,33.1494,31.83123"/>
<path fill="#CBBBA0" d="M23.94829,33.76661c0,0.23883-0.19383,0.43266-0.43265,0.43266c-0.23883,0-0.4323-0.19382-0.4323-0.43266
	c0-0.23882,0.19347-0.43229,0.4323-0.43229C23.75445,33.33433,23.94829,33.52779,23.94829,33.76661"/>
<path fill="#CBBBA0" d="M18.77331,36.80119c0,0.15343-0.12438,0.27781-0.27781,0.27781c-0.15342,0-0.2778-0.12438-0.2778-0.27781
	c0-0.15342,0.12438-0.2778,0.2778-0.2778C18.64894,36.52339,18.77331,36.64777,18.77331,36.80119"/>
<path fill="#CBBBA0" d="M8.5659,33.44377c0,0.20552-0.1669,0.37207-0.37242,0.37207s-0.37241-0.16654-0.37241-0.37207
	c0-0.20551,0.16689-0.37205,0.37241-0.37205S8.5659,33.23826,8.5659,33.44377"/>
<path fill="#CBBBA0" d="M12.41178,30.53602c0,0.27391-0.22218,0.49609-0.49608,0.49609c-0.27426,0-0.49643-0.22218-0.49643-0.49609
	c0-0.27425,0.22217-0.49642,0.49643-0.49642C12.1896,30.0396,12.41178,30.26176,12.41178,30.53602"/>
<path fill="#CBBBA0" d="M3.72624,29.17126c0,0.26258-0.21296,0.47517-0.47553,0.47517c-0.26221,0-0.47517-0.21259-0.47517-0.47517
	c0-0.26256,0.21296-0.47515,0.47517-0.47515C3.51327,28.69611,3.72624,28.9087,3.72624,29.17126"/>
<path fill="#CBBBA0" d="M6.85997,41.39172c0,0.29128-0.23635,0.52726-0.52726,0.52726c-0.29162,0-0.52761-0.23598-0.52761-0.52726
	c0-0.29126,0.23599-0.52725,0.52761-0.52725C6.62362,40.86447,6.85997,41.10046,6.85997,41.39172"/>
<path fill="#CBBBA0" d="M14.7368,40.8955c0,0.15343-0.12474,0.27781-0.27781,0.27781c-0.15378,0-0.2778-0.12438-0.2778-0.27781
	c0-0.15342,0.12402-0.2778,0.2778-0.2778C14.61206,40.6177,14.7368,40.74208,14.7368,40.8955"/>
<path fill="#CBBBA0" d="M22.08902,39.53072c0,0.18107-0.1467,0.32777-0.32777,0.32777c-0.18142,0-0.32812-0.1467-0.32812-0.32777
	c0-0.18106,0.1467-0.32776,0.32812-0.32776C21.94233,39.20295,22.08902,39.34965,22.08902,39.53072"/>
<path fill="#CBBBA0" d="M23.11261,36.94895c0,0.22253-0.18072,0.40324-0.4036,0.40324c-0.22253,0-0.40288-0.18071-0.40288-0.40324
	c0-0.22288,0.18035-0.40323,0.40288-0.40323C22.93189,36.54572,23.11261,36.72607,23.11261,36.94895"/>
<path fill="#CBBBA0" d="M30.77938,40.61763c0,0.18851-0.15273,0.34124-0.34123,0.34124c-0.18851,0-0.34124-0.15272-0.34124-0.34124
	c0-0.1885,0.15272-0.34122,0.34124-0.34122C30.62665,40.2764,30.77938,40.42912,30.77938,40.61763"/>
<path fill="#CBBBA0" d="M36.82636,44.74152c0,0.20552-0.16654,0.37207-0.37206,0.37207c-0.20551,0-0.37241-0.16654-0.37241-0.37207
	c0-0.20551,0.1669-0.37241,0.37241-0.37241C36.65982,44.36911,36.82636,44.536,36.82636,44.74152"/>
<path fill="#CBBBA0" d="M44.52116,33.60659c0,0.32954-0.26718,0.59672-0.59672,0.59672c-0.32953,0-0.59671-0.26717-0.59671-0.59672
	c0-0.32954,0.26717-0.59671,0.59671-0.59671C44.25398,33.00989,44.52116,33.27706,44.52116,33.60659"/>
<path fill="#CBBBA0" d="M41.35009,33.76661c0,0.22253-0.18072,0.40324-0.40324,0.40324c-0.22289,0-0.4029-0.18071-0.4029-0.40324
	c0-0.22252,0.18-0.40323,0.4029-0.40323C41.16938,33.36338,41.35009,33.54409,41.35009,33.76661"/>
<path fill="#CBBBA0" d="M7.09248,28.7991c0,0.20552-0.1669,0.37207-0.37242,0.37207s-0.37206-0.16655-0.37206-0.37207
	c0-0.2055,0.16654-0.3724,0.37206-0.3724S7.09248,28.5936,7.09248,28.7991"/>
<path fill="#CBBBA0" d="M16.14931,29.17126c0,0.21402-0.17328,0.388-0.388,0.388c-0.21402,0-0.3873-0.17398-0.3873-0.388
	c0-0.214,0.17328-0.38799,0.3873-0.38799C15.97603,28.78327,16.14931,28.95726,16.14931,29.17126"/>
<path fill="#CBBBA0" d="M19.84809,32.76917c0,0.17115-0.13891,0.31005-0.31005,0.31005c-0.17115,0-0.31005-0.1389-0.31005-0.31005
	c0-0.17113,0.1389-0.31005,0.31005-0.31005C19.70918,32.45913,19.84809,32.59804,19.84809,32.76917"/>
<path fill="#CBBBA0" d="M27.14841,32.27279c0,0.17575-0.14209,0.31784-0.31785,0.31784c-0.17575,0-0.31784-0.14209-0.31784-0.31784
	c0-0.1754,0.14209-0.31783,0.31784-0.31783C27.00632,31.95495,27.14841,32.09739,27.14841,32.27279"/>
<path fill="#CBBBA0" d="M28.09554,36.51191c0,0.15981-0.12934,0.28915-0.28915,0.28915c-0.15981,0-0.2895-0.12933-0.2895-0.28915
	c0-0.15981,0.12969-0.28913,0.2895-0.28913C27.96619,36.22277,28.09554,36.3521,28.09554,36.51191"/>
<path fill="#CBBBA0" d="M31.95938,35.25042c0,0.26575-0.2151,0.48085-0.48049,0.48085c-0.2654,0-0.48084-0.21509-0.48084-0.48085
	c0-0.26576,0.21544-0.48084,0.48084-0.48084C31.74428,34.76958,31.95938,34.98466,31.95938,35.25042"/>
<path fill="#CBBBA0" d="M33.89475,27.82209c0,0.19242-0.15591,0.34867-0.34867,0.34867s-0.34903-0.15626-0.34903-0.34867
	c0-0.19274,0.15627-0.34902,0.34903-0.34902S33.89475,27.62934,33.89475,27.82209"/>
<path fill="#CBBBA0" d="M7.68179,27.04314c0,0.26576-0.21509,0.48049-0.48049,0.48049c-0.2654,0-0.48084-0.21474-0.48084-0.48049
	c0-0.26539,0.21544-0.48047,0.48084-0.48047C7.4667,26.56266,7.68179,26.77775,7.68179,27.04314"/>
<path fill="#CBBBA0" d="M31.33964,26.60419c0,0.26907-0.21813,0.48717-0.48717,0.48717c-0.26905,0-0.4875-0.21811-0.4875-0.48717
	c0-0.26905,0.21845-0.48749,0.4875-0.48749C31.12151,26.1167,31.33964,26.33515,31.33964,26.60419"/>
<path fill="#CBBBA0" d="M25.54006,30.42737c0,0.16265-0.13182,0.29481-0.29481,0.29481c-0.16265,0-0.29447-0.13216-0.29447-0.29481
	c0-0.16264,0.13182-0.2948,0.29447-0.2948C25.40824,30.13257,25.54006,30.26474,25.54006,30.42737"/>
<path fill="#CBBBA0" d="M19.67369,29.17126c0,0.21651-0.17575,0.39227-0.39227,0.39227c-0.21686,0-0.39261-0.17575-0.39261-0.39227
	c0-0.21686,0.17575-0.39225,0.39261-0.39225C19.49794,28.77901,19.67369,28.9544,19.67369,29.17126"/>
<path fill="#CBBBA0" d="M15.55897,27.24922c0,0.31643-0.25655,0.57297-0.57263,0.57297c-0.31677,0-0.57296-0.25654-0.57296-0.57297
	c0-0.31641,0.25619-0.57295,0.57296-0.57295C15.30242,26.67627,15.55897,26.93282,15.55897,27.24922"/>
</svg>
